<svg width="1008" height="440" viewBox="0 0 1008 440" fill="none" xmlns="http://www.w3.org/2000/svg">
<g clip-path="url(#clip0_4_2)">
<path d="M411.136 64.7395C420.617 62.4049 430.24 66.0583 439.08 69.3017C476.665 78.9252 510.079 103.412 530.592 136.416C531.358 138.092 532.142 139.767 532.909 141.46C533.942 143.367 535.136 145.202 536.437 146.949C538.077 151.119 539.77 155.289 541.16 159.548C545.704 169.867 548.52 180.791 550.088 191.947C555.203 207.131 552.476 223.384 552.922 239.085C549.375 250.401 549.144 263.072 542.96 273.408C533.211 300.693 512.129 321.989 489.959 339.81C485.825 342.768 481.94 346.083 477.484 348.578C475.542 349.612 473.813 350.948 472.102 352.321C463.922 355.849 456.438 360.875 447.794 363.299C429.438 371.639 408.891 371.817 389.234 374.366C331.707 376.843 274.091 375.702 216.528 375.934C215.94 375.061 214.746 373.296 214.14 372.405C232.318 350.503 242.03 322.755 261.402 301.744C264.147 299.73 265.341 295.542 269.243 295.4C276.122 294.081 282.984 292.726 289.738 290.855C308.521 289.804 327.394 288.414 346.231 290.053C366.405 290.659 387.006 291.835 406.663 286.346C413.702 283.406 420.902 280.804 427.639 277.186C441.593 267.848 451.733 253.947 458.184 238.621C463.227 221.388 462.729 201.482 452.873 185.995C445.424 172.469 434.642 160.493 420.67 153.525C415.413 152.26 410.655 149.569 405.505 148.054C390.873 144.935 375.654 144.81 360.773 146.093C367.67 131.551 376.866 118.239 384.369 104.035C387.149 100.079 389.875 96.0871 392.192 91.8456C397.966 82.4716 403.829 73.0086 411.136 64.7395Z" fill="#F7EA1F"/>
<path d="M576.392 127.274C591.166 126.864 607.08 124.726 620.589 132.193C629.482 137.664 631.727 148.874 632.012 158.55C631.995 169.225 633.598 180.328 629.375 190.486C627.931 197.65 620.66 200.769 614.957 204.084C602.714 207.202 589.901 206.222 577.372 206.525C577.159 180.114 576.481 153.703 576.392 127.274ZM588.707 138.323C588.636 157.57 588.76 176.817 588.671 196.082C594.677 195.904 600.683 196.189 606.688 195.797C611.393 194.638 615.171 191.306 618.932 188.419C622.389 178.172 620.411 167.229 620.892 156.661C621.48 149.373 617.274 142.957 611.447 138.983C603.89 138.092 596.281 138.056 588.707 138.323Z" fill="#EC643A"/>
<path d="M653.897 127.666C664.233 123.96 675.853 127.666 683.498 135.169C692.462 146.254 690.02 161.348 690.359 174.554C690.805 181.201 689.236 187.742 686.813 193.89C678.597 208.022 657.016 211.248 644.737 200.448C638.143 194.443 634.757 185.247 635.095 176.372C635.149 169.243 635.131 162.097 635.095 154.951C634.721 143.082 642.331 131.141 653.897 127.666ZM652.525 140.248C648.871 145.024 644.844 150.317 645.753 156.733C646.679 167.39 643.186 179.205 649.424 188.722C652.988 195.939 661.97 197.24 669.116 195.565C672.271 193.551 674.908 190.843 677.706 188.365C678.829 183.875 680.023 179.33 679.755 174.661C679.346 163.22 681.734 150.264 673.714 140.765C667.174 137.04 659.136 136.327 652.525 140.248Z" fill="#EC643A"/>
<path d="M694.333 141.246C698.236 128.29 713.633 124.013 725.734 125.884C733.041 125.831 738.958 130.411 745.213 133.547C743.217 136.22 741.221 138.911 739.332 141.656C728.888 135.793 714.079 133.494 704.616 142.28C704.562 145.951 704.562 149.622 704.634 153.293C706.665 154.915 708.679 156.572 710.693 158.265C719.675 160.368 728.888 161.438 737.692 164.342C740.134 166.891 742.682 169.35 745.302 171.738C746.87 177.494 748.599 183.714 746.442 189.595C744.607 197.223 737.086 201.09 730.778 204.618C722.188 205.884 713.527 205.866 704.919 204.618C700.018 201.571 694.226 199.967 689.878 196.082C691.892 193.462 694.244 191.11 696.561 188.74C703.761 191.734 710.729 196.759 718.891 196.064C725.93 196.474 732.078 192.143 736.783 187.35C736.356 183.803 737.959 179.152 734.36 176.835C724.718 167.461 708.911 173.075 699.234 163.932C691.963 158.836 693.816 148.82 694.333 141.246Z" fill="#EC643A"/>
<path d="M749.276 126.544C753.125 126.544 756.993 126.561 760.86 126.615C761.519 128.629 762.107 130.66 762.66 132.728C768.273 143.848 773.566 155.165 778.218 166.731C780.766 170.366 782.37 174.518 783.938 178.653C791.316 161.188 798.409 143.599 806.696 126.526C809.993 126.419 813.308 126.348 816.622 126.276C816.997 152.474 817.406 178.653 817.745 204.85C813.914 204.797 810.1 204.761 806.286 204.708C806.143 187.065 806.411 169.422 806.179 151.796C803.666 157.392 800.334 162.614 798.391 168.477C797.874 170.313 797.358 172.148 796.841 173.966C796.199 174.732 794.934 176.247 794.292 176.996C792.564 182.823 790.14 188.383 787.93 194.033C785.613 194.05 783.297 194.104 780.998 194.157C776.721 189.506 775.865 183.001 772.818 177.637C770.18 172.968 768.273 167.925 766.367 162.935C764.638 160.832 763.301 158.479 762.998 155.735L761.27 155.468C761.911 171.899 761.573 188.348 761.608 204.779C757.83 204.815 754.052 204.832 750.292 204.85C749.953 178.76 749.187 152.652 749.276 126.544Z" fill="#EC643A"/>
<path d="M70.3585 146.183C79.1622 147.394 88.0372 148.125 96.9122 147.929C123.626 147.644 150.34 148.713 177.036 148.25C211.538 147.43 246.04 148.41 280.524 147.573C305.92 147.056 331.333 147.163 356.728 148.089C327.822 196.795 298.256 245.09 269.297 293.742C265.394 293.831 262.739 296.487 261.901 300.176L261.402 301.744C242.03 322.755 232.318 350.503 214.14 372.405C194.341 348.24 181.26 319.423 162.958 294.259C166.86 290.445 172.225 293.332 176.947 292.923C182.115 292.548 187.141 290.927 191.971 289.109C197.762 286.988 200.952 281.392 205.247 277.311C212.126 259.9 222.73 244.342 233.031 228.855C237.237 222.315 242.743 216.541 245.612 209.198C248.179 206.187 245.399 200.68 241.389 201.321C196.212 201.179 151.017 201.339 105.894 203.175C98.8547 193.266 93.2944 182.467 86.5937 172.344C81.4077 163.469 74.9386 155.396 70.3585 146.183Z" fill="#EC643A"/>
<path d="M0.784424 205.331C11.2811 202.729 22.0986 203.816 32.7913 203.62C56.7965 203.834 80.8195 202.016 104.807 202.551C109.387 206.846 110.884 213.048 113.45 218.572C121.844 230.869 129.953 243.469 138.4 255.783C141.216 262.787 146.277 268.507 149.663 275.208C151.392 278.202 153.405 281.036 155.294 283.923C156.079 286.079 156.898 288.218 157.7 290.374C134.996 289.893 112.345 294.01 89.6411 292.014C78.0394 290.392 66.0992 290.534 55.0144 286.311C52.2165 283.602 48.7592 281.766 45.8365 279.254C38.4585 270.878 33.0943 261.058 26.9103 251.845C17.2334 239.548 10.3009 225.416 0.926983 212.905C0.855698 210.375 0.820066 207.844 0.784424 205.331Z" fill="#56C8EA"/>
<path d="M776.649 245.18C793.847 244.983 811.062 244.698 828.277 244.36C828.367 248.316 828.42 252.308 828.42 256.282C821.612 256.318 814.805 256.407 807.997 256.532C807.961 279.61 808.033 302.671 807.961 325.731C804.611 325.714 801.296 325.696 797.981 325.678C797.857 302.635 797.179 279.592 797.304 256.532C790.372 256.603 783.439 256.621 776.507 256.336C776.578 252.611 776.596 248.886 776.649 245.18Z" fill="#010101"/>
<path d="M872.242 244.324C875.504 244.342 878.801 244.36 882.098 244.378C882.133 271.341 883.238 298.322 882.775 325.304C879.246 325.322 875.753 325.357 872.26 325.411C872.029 313.738 872.207 302.083 872.153 290.41C861.96 290.41 851.766 290.356 841.59 290.463C841.661 302.261 841.982 314.041 841.822 325.838C838.24 325.856 834.675 325.892 831.111 325.927C830.826 298.928 830.131 271.929 830.042 244.93C833.66 244.912 837.277 244.877 840.913 244.877C841.073 256.728 841.287 268.579 841.465 280.43C851.695 280.376 861.924 280.163 872.153 280.073C872.171 268.151 872.064 256.246 872.242 244.324Z" fill="#010101"/>
<path d="M903.127 246.106C911.752 242.56 921.625 242.542 930.233 246.195C936.702 251.381 941.228 258.688 941.585 267.153C941.745 278.487 941.656 289.839 941.638 301.174C941.692 309.728 936.631 317.035 930.322 322.345C921.625 325.856 911.77 325.999 903.162 322.131C900.81 319.637 898.226 317.373 895.998 314.771C888.691 301.209 890.082 285.473 890.224 270.628C891.614 261.254 895.446 252.041 903.127 246.106ZM902.485 265.389C900.578 277.169 901.701 289.251 902.325 301.12C902.503 307.393 907.618 311.956 913.249 313.756C918.881 316.429 924.067 311.653 928.807 309.247C934.242 296.558 931.658 282.408 931.409 269.06C931.641 260.773 924.423 254.607 916.617 253.912C910.416 254.892 903.358 258.492 902.485 265.389Z" fill="#010101"/>
<path d="M948.785 244.075C952.153 244.075 955.539 244.075 958.943 244.11C969.083 264.64 982.378 283.477 993.16 303.704C993.694 283.816 992.928 263.927 992.767 244.057C996.367 244.075 999.985 244.11 1003.6 244.146C1004.03 270.842 1004.07 297.538 1004.03 324.252C1000.56 324.27 997.098 324.288 993.659 324.324C991.092 319.102 988.633 313.809 985.14 309.14C977.103 294.58 968.317 280.412 959.531 266.262C959.388 285.598 959.495 304.934 959.477 324.27C955.895 324.27 952.331 324.27 948.785 324.27C948.803 297.538 948.767 270.806 948.785 244.075Z" fill="#010101"/>
<path d="M578.103 247.015C581.079 246.73 584.091 246.463 587.085 246.213C595.514 247.086 604.372 245.34 612.373 248.904C618.112 250.33 622.282 254.553 625.989 258.902C630.961 271.84 629.731 285.83 629.767 299.374C629.713 305.255 627.753 310.886 625.739 316.34C622.193 319.494 619.484 324.092 614.53 325.108C602.714 328.494 590.257 327.46 578.121 327.745C578.085 300.835 578.121 273.925 578.103 247.015ZM588.796 258.349C588.778 277.935 588.796 297.538 588.796 317.124C596.352 316.91 604.425 318.336 611.482 314.843C614.94 311.742 619.128 308.017 619.038 302.992C619.181 292.833 619.145 282.658 619.056 272.499C619.27 267.616 615.029 264.32 612.944 260.31C605.316 256.942 596.833 258.688 588.796 258.349Z" fill="#010101"/>
<path d="M646.412 270.984C649.851 262.84 651.669 254.143 654.503 245.785C657.497 245.803 660.508 245.839 663.52 245.857C667.12 257.137 671.558 268.133 675.051 279.45C678.936 287.255 679.951 296.077 683.712 303.936C686.652 311.064 688.149 318.692 690.68 325.981C687.133 326.016 683.587 326.052 680.058 326.07C678.49 320.046 676.565 314.112 673.785 308.516C664.108 308.748 654.431 308.855 644.754 309.015C643.204 314.7 641.654 320.367 640.121 326.052C636.254 326.052 632.404 326.07 628.573 326.07C631.638 316.767 635.398 307.678 637.448 298.037C642.135 289.661 642.883 279.842 646.412 270.984ZM658.976 261.557C656.499 273.8 650.832 285.135 648.8 297.502C656.285 297.556 663.788 297.574 671.272 297.467C666.372 285.776 663.698 273.319 658.976 261.557Z" fill="#010101"/>
<path d="M681.466 245.857C698.699 245.857 715.915 245.857 733.148 245.857C733.13 249.421 733.13 252.985 733.148 256.549C726.019 256.549 718.909 256.549 711.816 256.549C712.101 279.717 712.439 302.885 712.796 326.052C709.463 326.052 706.166 326.052 702.852 326.052C702.638 302.902 703.351 279.77 702.709 256.639C695.616 256.728 688.541 256.817 681.466 256.888C681.466 253.217 681.466 249.528 681.466 245.857Z" fill="#010101"/>
<path d="M749.561 245.857C752.84 245.857 756.137 245.857 759.434 245.857C761.216 256.852 766.741 266.636 769.414 277.365C775.313 293.511 781.265 309.657 786.112 326.159C782.762 326.106 779.412 326.213 776.097 325.856C773.958 324.448 774.261 321.615 773.62 319.476C771.838 316.179 770.626 312.633 769.503 309.086C759.915 307.91 750.114 309.372 740.454 308.801C738.209 314.005 737.532 319.708 735.643 325.001C732.471 327.264 727.712 325.571 723.97 326.07C728.746 311.207 733.665 296.416 738.565 281.588C741.399 269.416 747.12 258.153 749.561 245.857ZM753.375 264.765C752.502 270.806 749.258 276.135 748.011 282.087C746.799 287.327 745.444 292.548 743.573 297.61C751.272 297.52 758.989 297.503 766.705 297.574C761.787 289.608 761.662 279.842 757.545 271.501C756.012 269.345 757.206 263.981 753.375 264.765Z" fill="#010101"/>
</g>
<defs>
<clipPath id="clip0_4_2">
<rect width="1006.67" height="440" fill="white" transform="translate(0.5)"/>
</clipPath>
</defs>
</svg>
