<svg width="1005" height="312" viewBox="0 0 1005 312" fill="none" xmlns="http://www.w3.org/2000/svg">
<path d="M411.136 0.739515C420.617 -1.59507 430.24 2.05828 439.08 5.30174C476.665 14.9252 510.079 39.4116 530.592 72.4165C531.358 74.0917 532.142 75.7669 532.909 77.4599C533.942 79.3668 535.136 81.2024 536.437 82.9488C538.077 87.119 539.77 91.2892 541.16 95.5485C545.704 105.867 548.52 116.791 550.088 127.947C555.203 143.131 552.476 159.384 552.922 175.085C549.375 186.401 549.144 199.072 542.96 209.408C533.211 236.693 512.129 257.989 489.959 275.81C485.825 278.768 481.94 282.083 477.484 284.578C475.542 285.612 473.813 286.948 472.102 288.321C463.922 291.849 456.438 296.875 447.794 299.299C429.438 307.639 408.891 307.817 389.234 310.366C331.707 312.843 274.091 311.702 216.528 311.934C215.94 311.061 214.746 309.296 214.14 308.405C232.318 286.503 242.03 258.755 261.402 237.744C264.147 235.73 265.341 231.542 269.243 231.4C276.122 230.081 282.984 228.726 289.738 226.855C308.521 225.804 327.394 224.414 346.231 226.053C366.405 226.659 387.006 227.835 406.663 222.346C413.702 219.406 420.902 216.804 427.639 213.186C441.593 203.848 451.733 189.947 458.184 174.621C463.227 157.388 462.729 137.482 452.873 121.995C445.424 108.469 434.642 96.493 420.67 89.5249C415.413 88.2596 410.655 85.5686 405.505 84.0537C390.873 80.935 375.654 80.8103 360.773 82.0934C367.67 67.5513 376.866 54.2388 384.369 40.0353C387.149 36.079 389.875 32.0871 392.192 27.8456C397.966 18.4716 403.829 9.00856 411.136 0.739515Z" fill="#F7EA1F"/>
<path d="M576.392 63.2742C591.166 62.8643 607.08 60.7258 620.589 68.1929C629.482 73.664 631.727 84.8735 632.012 94.5504C631.995 105.225 633.598 116.328 629.375 126.486C627.931 133.65 620.66 136.769 614.957 140.084C602.714 143.202 589.901 142.222 577.372 142.525C577.159 116.114 576.481 89.7031 576.392 63.2742ZM588.707 74.3234C588.636 93.5703 588.76 112.817 588.671 132.082C594.677 131.904 600.683 132.189 606.688 131.797C611.393 130.638 615.171 127.306 618.932 124.419C622.389 114.172 620.411 103.229 620.892 92.6614C621.48 85.3725 617.274 78.9569 611.447 74.9827C603.89 74.0917 596.281 74.056 588.707 74.3234Z" fill="#EC643A"/>
<path d="M653.897 63.6664C664.233 59.9595 675.853 63.6664 683.498 71.1691C692.462 82.2539 690.02 97.3485 690.359 110.554C690.805 117.201 689.236 123.742 686.813 129.89C678.597 144.022 657.016 147.248 644.737 136.448C638.143 130.443 634.757 121.247 635.095 112.372C635.149 105.243 635.131 98.097 635.095 90.9507C634.721 79.0817 642.331 67.1415 653.897 63.6664ZM652.525 76.2481C648.871 81.0242 644.844 86.3171 645.753 92.7328C646.679 103.39 643.186 115.205 649.424 124.722C652.988 131.939 661.97 133.24 669.116 131.565C672.271 129.551 674.908 126.843 677.706 124.365C678.829 119.875 680.023 115.33 679.755 110.661C679.346 99.2197 681.734 86.2637 673.714 76.765C667.174 73.0403 659.136 72.3275 652.525 76.2481Z" fill="#EC643A"/>
<path d="M694.333 77.2461C698.236 64.2901 713.633 60.013 725.734 61.8842C733.041 61.8307 738.958 66.4108 745.213 69.5473C743.217 72.2205 741.221 74.9115 739.332 77.656C728.888 71.7928 714.079 69.4938 704.616 78.2797C704.562 81.9509 704.562 85.6221 704.634 89.2932C706.665 90.915 708.679 92.5723 710.693 94.2654C719.675 96.3683 728.888 97.4375 737.692 100.342C740.134 102.891 742.682 105.35 745.302 107.738C746.87 113.494 748.599 119.714 746.442 125.595C744.607 133.223 737.086 137.09 730.778 140.618C722.188 141.884 713.527 141.866 704.919 140.618C700.018 137.571 694.226 135.967 689.878 132.082C691.892 129.462 694.244 127.11 696.561 124.74C703.761 127.734 710.729 132.759 718.891 132.064C725.93 132.474 732.078 128.144 736.783 123.35C736.356 119.803 737.959 115.152 734.36 112.835C724.718 103.461 708.911 109.075 699.234 99.9325C691.963 94.8356 693.816 84.8201 694.333 77.2461Z" fill="#EC643A"/>
<path d="M749.276 62.5437C753.125 62.5437 756.993 62.5615 760.86 62.615C761.519 64.6288 762.107 66.6604 762.66 68.7276C768.273 79.8481 773.566 91.1646 778.218 102.731C780.766 106.366 782.37 110.518 783.938 114.653C791.316 97.1881 798.409 79.5986 806.696 62.5259C809.993 62.4189 813.308 62.3477 816.622 62.2764C816.997 88.4736 817.406 114.653 817.745 140.85C813.914 140.797 810.1 140.761 806.286 140.708C806.143 123.065 806.411 105.422 806.179 87.7964C803.666 93.3922 800.334 98.6138 798.391 104.477C797.874 106.313 797.358 108.148 796.841 109.966C796.199 110.732 794.934 112.247 794.292 112.996C792.564 118.823 790.14 124.383 787.93 130.033C785.613 130.05 783.297 130.104 780.998 130.157C776.721 125.506 775.865 119.001 772.818 113.637C770.18 108.968 768.273 103.925 766.367 98.9346C764.638 96.8317 763.301 94.4793 762.998 91.7348L761.27 91.4675C761.911 107.899 761.573 124.348 761.608 140.779C757.83 140.815 754.052 140.832 750.292 140.85C749.953 114.76 749.187 88.6518 749.276 62.5437Z" fill="#EC643A"/>
<path d="M70.3585 82.1826C79.1622 83.3945 88.0372 84.1251 96.9122 83.9291C123.626 83.644 150.34 84.7132 177.036 84.2499C211.538 83.4301 246.04 84.4103 280.524 83.5727C305.92 83.0559 331.333 83.1628 356.728 84.0895C327.822 132.795 298.256 181.09 269.297 229.742C265.394 229.831 262.739 232.487 261.901 236.176L261.402 237.744C242.03 258.755 232.318 286.503 214.14 308.405C194.341 284.24 181.26 255.423 162.958 230.259C166.86 226.445 172.225 229.332 176.947 228.923C182.115 228.548 187.141 226.927 191.971 225.109C197.762 222.988 200.952 217.392 205.247 213.311C212.126 195.9 222.73 180.342 233.031 164.855C237.236 158.315 242.743 152.541 245.612 145.198C248.179 142.187 245.399 136.68 241.389 137.321C196.212 137.179 151.017 137.339 105.894 139.175C98.8547 129.266 93.2944 118.467 86.5937 108.344C81.4077 99.4692 74.9386 91.3962 70.3585 82.1826Z" fill="#EC643A"/>
<path d="M0.784424 141.331C11.2811 138.729 22.0986 139.816 32.7913 139.62C56.7965 139.834 80.8195 138.016 104.807 138.551C109.387 142.846 110.884 149.048 113.45 154.572C121.844 166.869 129.953 179.469 138.4 191.783C141.216 198.787 146.277 204.507 149.663 211.208C151.392 214.202 153.405 217.036 155.294 219.923C156.079 222.079 156.898 224.218 157.7 226.374C134.996 225.893 112.345 230.01 89.6411 228.014C78.0394 226.392 66.0992 226.534 55.0144 222.311C52.2165 219.602 48.7592 217.766 45.8365 215.254C38.4585 206.878 33.0943 197.058 26.9103 187.845C17.2334 175.548 10.3009 161.416 0.926983 148.905C0.855698 146.375 0.820066 143.844 0.784424 141.331Z" fill="#56C8EA"/>
<path d="M776.649 181.18C793.847 180.983 811.062 180.698 828.277 180.36C828.367 184.316 828.42 188.308 828.42 192.282C821.612 192.318 814.805 192.407 807.997 192.532C807.961 215.61 808.033 238.671 807.961 261.731C804.611 261.714 801.296 261.696 797.981 261.678C797.857 238.635 797.179 215.592 797.304 192.532C790.372 192.603 783.439 192.621 776.507 192.336C776.578 188.611 776.596 184.886 776.649 181.18Z" fill="white"/>
<path d="M872.242 180.324C875.504 180.342 878.801 180.36 882.098 180.378C882.133 207.341 883.238 234.322 882.775 261.304C879.246 261.322 875.753 261.357 872.26 261.411C872.029 249.738 872.207 238.083 872.153 226.41C861.96 226.41 851.766 226.356 841.59 226.463C841.661 238.261 841.982 250.041 841.822 261.838C838.24 261.856 834.675 261.892 831.111 261.927C830.826 234.928 830.131 207.929 830.042 180.93C833.66 180.912 837.277 180.877 840.913 180.877C841.073 192.728 841.287 204.579 841.465 216.43C851.695 216.376 861.924 216.163 872.153 216.073C872.171 204.151 872.064 192.246 872.242 180.324Z" fill="white"/>
<path d="M903.127 182.106C911.752 178.56 921.625 178.542 930.233 182.195C936.702 187.381 941.228 194.688 941.585 203.153C941.745 214.487 941.656 225.839 941.638 237.174C941.692 245.728 936.631 253.035 930.322 258.345C921.625 261.856 911.77 261.999 903.162 258.131C900.81 255.636 898.226 253.373 895.998 250.771C888.691 237.209 890.082 221.473 890.224 206.628C891.614 197.254 895.446 188.041 903.127 182.106ZM902.485 201.389C900.578 213.169 901.701 225.251 902.325 237.12C902.503 243.393 907.618 247.956 913.249 249.756C918.881 252.429 924.067 247.653 928.807 245.247C934.242 232.558 931.658 218.408 931.409 205.06C931.641 196.773 924.423 190.607 916.617 189.912C910.416 190.892 903.358 194.492 902.485 201.389Z" fill="white"/>
<path d="M948.785 180.075C952.153 180.075 955.539 180.075 958.943 180.11C969.083 200.64 982.378 219.477 993.16 239.704C993.694 219.816 992.928 199.927 992.767 180.057C996.367 180.075 999.985 180.11 1003.6 180.146C1004.03 206.842 1004.07 233.538 1004.03 260.252C1000.56 260.27 997.098 260.288 993.659 260.324C991.092 255.102 988.633 249.809 985.14 245.14C977.103 230.58 968.317 216.412 959.531 202.262C959.388 221.598 959.495 240.934 959.477 260.27C955.895 260.27 952.331 260.27 948.785 260.27C948.803 233.538 948.767 206.806 948.785 180.075Z" fill="white"/>
<path d="M578.103 183.015C581.079 182.73 584.091 182.463 587.085 182.213C595.514 183.086 604.372 181.34 612.373 184.904C618.112 186.33 622.282 190.553 625.989 194.902C630.961 207.84 629.731 221.83 629.767 235.374C629.713 241.255 627.753 246.886 625.739 252.34C622.193 255.494 619.484 260.092 614.53 261.108C602.714 264.494 590.257 263.46 578.121 263.745C578.085 236.835 578.121 209.925 578.103 183.015ZM588.796 194.349C588.778 213.935 588.796 233.538 588.796 253.124C596.352 252.91 604.425 254.336 611.482 250.843C614.94 247.742 619.128 244.017 619.038 238.992C619.181 228.833 619.145 218.658 619.056 208.499C619.27 203.616 615.029 200.32 612.944 196.31C605.316 192.942 596.833 194.688 588.796 194.349Z" fill="white"/>
<path d="M646.412 206.984C649.851 198.84 651.669 190.143 654.503 181.785C657.497 181.803 660.508 181.839 663.52 181.857C667.12 193.137 671.558 204.133 675.051 215.45C678.936 223.255 679.951 232.077 683.712 239.936C686.652 247.064 688.149 254.692 690.68 261.981C687.133 262.016 683.587 262.052 680.058 262.07C678.49 256.046 676.565 250.112 673.785 244.516C664.108 244.748 654.431 244.855 644.754 245.015C643.204 250.7 641.654 256.367 640.121 262.052C636.254 262.052 632.404 262.07 628.573 262.07C631.638 252.767 635.398 243.678 637.448 234.037C642.135 225.661 642.883 215.842 646.412 206.984ZM658.976 197.557C656.499 209.8 650.832 221.135 648.8 233.502C656.285 233.556 663.788 233.574 671.272 233.467C666.372 221.776 663.698 209.319 658.976 197.557Z" fill="white"/>
<path d="M681.466 181.857C698.699 181.857 715.915 181.857 733.148 181.857C733.13 185.421 733.13 188.985 733.148 192.549C726.019 192.549 718.909 192.549 711.816 192.549C712.101 215.717 712.439 238.885 712.796 262.052C709.463 262.052 706.166 262.052 702.852 262.052C702.638 238.902 703.351 215.77 702.709 192.639C695.616 192.728 688.541 192.817 681.466 192.888C681.466 189.217 681.466 185.528 681.466 181.857Z" fill="white"/>
<path d="M749.561 181.857C752.84 181.857 756.137 181.857 759.434 181.857C761.216 192.852 766.741 202.636 769.414 213.365C775.313 229.511 781.265 245.657 786.112 262.159C782.762 262.106 779.412 262.213 776.097 261.856C773.958 260.448 774.261 257.615 773.62 255.476C771.838 252.179 770.626 248.633 769.503 245.086C759.915 243.91 750.114 245.372 740.454 244.801C738.209 250.005 737.532 255.708 735.643 261.001C732.471 263.264 727.712 261.571 723.97 262.07C728.746 247.207 733.665 232.416 738.565 217.588C741.399 205.416 747.12 194.153 749.561 181.857ZM753.375 200.765C752.502 206.806 749.258 212.135 748.011 218.087C746.799 223.327 745.444 228.548 743.573 233.61C751.272 233.52 758.989 233.503 766.705 233.574C761.787 225.608 761.662 215.842 757.545 207.501C756.012 205.345 757.206 199.981 753.375 200.765Z" fill="white"/>
</svg>
