  <svg
    width="161"
    height="67"
    viewBox="0 0 161 67"
    fill="none"
    xmlns="http://www.w3.org/2000/svg"
  >
    <path
      d="M54.5405 0.320312H0.0605469V41.2303H54.5405V0.320312Z"
      fill="#002E6E"
    ></path>
    <path
      d="M27.3 66.061C42.37 66.061 54.59 54.191 54.59 39.551C54.59 24.911 42.38 13.041 27.3 13.041C12.22 13.041 0 24.911 0 39.551C0 54.191 12.23 66.061 27.3 66.061Z"
      fill="#92117E"
    ></path>
    <path
      d="M27.1406 42.8906L32.2606 46.2306L27.1406 49.4206"
      fill="#FEBE10"
    ></path>
    <path
      d="M10.7598 24.8809L27.1898 32.8609L43.8298 24.8809L27.1898 30.4409L10.7598 24.8809Z"
      fill="#FEBE10"
    ></path>
    <path
      d="M10.7598 21.4199L27.1898 29.4099L43.8298 21.4199L27.1898 26.9899L10.7598 21.4199Z"
      fill="#FEBE10"
    ></path>
    <path
      d="M27.1898 36.7309L10.7598 30.8109V27.8809L27.1898 33.7409C43.8698 27.9409 43.8298 27.8809 43.8298 27.8809V30.8109L27.1898 36.7309Z"
      fill="#FEBE10"
    ></path>
    <path
      d="M10.7598 17.8711L27.1898 25.8611L43.8298 17.8711L27.1898 23.4411L10.7598 17.8711Z"
      fill="#FEBE10"
    ></path>
    <path
      d="M10.7598 14.4707L27.1898 22.4607L43.8298 14.4707L27.1898 20.0307L10.7598 14.4707Z"
      fill="#FEBE10"
    ></path>
    <path
      d="M10.7598 10.9512L27.1898 18.9512L43.8298 10.9512L27.1898 16.5212L10.7598 10.9512Z"
      fill="#FEBE10"
    ></path>
    <path
      d="M10.7598 8.6207L27.1898 13.6807L43.8298 8.6207L27.1898 2.9707L10.7598 8.6207Z"
      fill="#FEBE10"
    ></path>
    <path
      d="M39.1107 42.3396L39.4307 40.7196L43.8207 39.3496L45.9107 39.8396L48.8907 42.0196L48.7307 42.3796L49.4807 44.2196L47.7207 46.1196L45.5307 42.9896L43.6707 42.1696L42.5507 43.1996L41.5507 43.5996C41.5507 43.5996 41.7207 44.1196 41.2607 44.3096L39.9207 43.7396L42.2107 47.1596C42.2107 47.1596 39.3207 44.7096 33.2507 48.2996C33.2507 48.2996 30.2907 50.6896 26.5607 51.6896C26.5607 51.6896 23.7607 52.1896 20.6507 54.6896C17.5307 57.1796 12.4307 58.2296 9.2207 59.5396C9.2207 59.5396 14.2807 55.5296 16.1107 54.7796C16.1107 54.7796 18.1207 53.8496 20.5007 52.0696C23.3907 49.9196 25.0807 49.4696 26.9207 48.9596C26.9207 48.9596 29.4707 48.1896 31.9507 45.7996C31.9507 45.7996 34.2507 44.5196 34.7307 44.0296C34.7307 44.0296 35.5607 43.0196 36.2407 41.3796L36.4507 42.2896C36.4507 42.2896 37.9007 40.7096 37.4907 39.6796L39.1107 42.3596V42.3396Z"
      fill="white"
    ></path>
    <path
      d="M14.7999 42.3396L14.4799 40.7196L10.0799 39.3496L7.98992 39.8396L5.01992 42.0196L5.16992 42.3796L4.41992 44.2196L6.16992 46.1196L8.36992 42.9896L10.2299 42.1696L11.3499 43.1996L12.3499 43.5996C12.3499 43.5996 12.1799 44.1196 12.6499 44.3096L13.9799 43.7396L11.6899 47.1596C11.6899 47.1596 14.5799 44.7096 20.6499 48.2996C20.6499 48.2996 23.6099 50.6896 27.3399 51.6896C27.3399 51.6896 30.1399 52.1896 33.2699 54.6896C36.3799 57.1796 41.4099 58.8396 44.6299 60.1496C44.6299 60.1496 39.6199 55.5196 37.7899 54.7696C37.7899 54.7696 35.7799 53.8396 33.3999 52.0596C30.5199 49.9096 28.8199 49.4596 26.9799 48.9496C26.9799 48.9496 24.4299 48.1796 21.9399 45.7896C21.9399 45.7896 19.6499 44.5096 19.1699 44.0196C19.1699 44.0196 18.3399 43.0096 17.6699 41.3696L17.4499 42.2796C17.4499 42.2796 15.9899 40.6996 16.4099 39.6696L14.7999 42.3496V42.3396Z"
      fill="white"
    ></path>
    <path
      d="M51.1891 52.6011L16.6791 35.1211H9.61914L49.5191 55.2711C49.5191 55.2711 50.5791 53.9011 51.1891 52.6011Z"
      fill="white"
    ></path>
    <path
      d="M4.81961 54.5509L45.0996 35.1309H38.0396L3.09961 51.9409C3.09961 51.9409 4.42961 54.4009 4.81961 54.5509Z"
      fill="white"
    ></path>
    <path
      d="M64.1604 18.5586H68.2704V19.3186H68.0004C67.6704 19.3186 67.4404 19.3486 67.2904 19.4286C67.1804 19.4986 67.1004 19.6086 67.0304 19.7586C66.9804 19.9086 66.9504 20.1986 66.9504 20.6486V26.3286C66.9504 27.3386 67.0504 28.0886 67.2704 28.5786C67.4704 29.0786 67.8304 29.4786 68.3104 29.8086C68.8104 30.1386 69.3404 30.3186 69.9204 30.3186C70.5004 30.3186 71.0704 30.1286 71.6004 29.7786C72.1204 29.4186 72.5004 28.9886 72.7104 28.4986C72.9204 28.0086 73.0204 27.2386 73.0204 26.1786V20.7086C73.0204 20.3086 72.9904 20.0086 72.9304 19.8386C72.8704 19.6486 72.7704 19.5186 72.6404 19.4386C72.5104 19.3586 72.3004 19.3186 72.0204 19.3186H71.7204V18.5586H75.2704V19.3186H75.0304C74.6204 19.3186 74.3404 19.4086 74.2004 19.5886C74.0504 19.7786 73.9604 20.1286 73.9604 20.6486V26.4686C73.9604 27.5286 73.7904 28.4086 73.4404 29.1186C73.1104 29.8286 72.6204 30.3886 71.9704 30.7986C71.3204 31.2086 70.5704 31.4186 69.7104 31.4186C68.9004 31.4186 68.1504 31.2086 67.4804 30.7886C66.8104 30.3586 66.3004 29.8286 66.0004 29.2086C65.6804 28.5786 65.5204 27.7786 65.5204 26.8286V20.6386C65.5204 20.2286 65.5004 19.9386 65.4304 19.7786C65.3704 19.6086 65.2704 19.4886 65.1604 19.4186C65.0404 19.3486 64.8304 19.3186 64.5404 19.3186H64.1504V18.5586H64.1604Z"
      fill="#737A7F"
    ></path>
    <path
      d="M76.5198 20.479H79.8298L84.6898 28.519V22.399C84.6898 22.029 84.6598 21.769 84.5898 21.599C84.5098 21.439 84.4098 21.319 84.2698 21.239C84.1298 21.159 83.9198 21.119 83.6498 21.119H83.3798V20.479H86.9398V21.119H86.7498C86.4298 21.119 86.2098 21.149 86.0998 21.199C85.9398 21.269 85.8198 21.399 85.7298 21.599C85.6598 21.789 85.6198 22.059 85.6198 22.409V31.209H84.6898L78.8098 21.539V29.209C78.8098 29.629 78.8298 29.879 78.8498 29.979C78.8798 30.099 78.9398 30.209 79.0398 30.299C79.1298 30.409 79.2398 30.469 79.3598 30.499C79.4898 30.539 79.7498 30.559 80.1198 30.569V31.199H76.5098V30.569H76.6998C77.0798 30.569 77.3198 30.529 77.4498 30.459C77.5798 30.389 77.6798 30.269 77.7598 30.079C77.8398 29.909 77.8698 29.609 77.8698 29.199V22.389C77.8698 21.959 77.8598 21.699 77.8298 21.599C77.7898 21.429 77.6898 21.299 77.5698 21.219C77.4398 21.139 77.1698 21.099 76.7798 21.099H76.5098V20.459L76.5198 20.479Z"
      fill="#737A7F"
    ></path>
    <path
      d="M88.1213 20.4785H92.1613V21.1185H91.8513C91.5713 21.1185 91.3413 21.1585 91.2213 21.2485C91.1013 21.3285 91.0013 21.4485 90.9313 21.5985C90.8813 21.7485 90.8413 22.0485 90.8413 22.4885V29.4385C90.8413 29.7885 90.8713 30.0285 90.9413 30.1585C91.0013 30.2985 91.0913 30.4085 91.2113 30.4685C91.3213 30.5385 91.5413 30.5685 91.8413 30.5685H92.1513V31.1985H88.1113V30.5685H88.4313C88.7313 30.5685 88.9513 30.5385 89.0513 30.4585C89.1813 30.3985 89.2813 30.2985 89.3213 30.1685C89.3813 30.0485 89.4113 29.7985 89.4113 29.4285V22.3485C89.4113 21.9385 89.3813 21.6685 89.3213 21.5285C89.2713 21.3985 89.1813 21.2885 89.0513 21.2185C88.9413 21.1585 88.7213 21.1185 88.4313 21.1185H88.1113V20.4785H88.1213Z"
      fill="#737A7F"
    ></path>
    <path
      d="M92.791 20.4785H96.711V21.1185H96.411C96.131 21.1185 95.961 21.1285 95.881 21.1585C95.771 21.1985 95.701 21.2385 95.651 21.3085C95.591 21.3785 95.561 21.4585 95.561 21.5485C95.561 21.6985 95.621 21.8985 95.721 22.1685L98.591 29.5885L101.461 22.1685C101.561 21.8985 101.611 21.6985 101.611 21.5585C101.611 21.4085 101.551 21.2885 101.461 21.2185C101.361 21.1585 101.141 21.1185 100.831 21.1185H100.471V20.4785H103.791V21.1185C103.511 21.1185 103.291 21.1485 103.151 21.1985C103.011 21.2485 102.901 21.3385 102.821 21.4385C102.711 21.5785 102.601 21.8185 102.451 22.1585L98.831 31.1985H97.721L94.111 22.1585C93.991 21.8485 93.901 21.6585 93.861 21.5885C93.781 21.4785 93.711 21.3885 93.621 21.3185C93.531 21.2485 93.431 21.1985 93.311 21.1685C93.181 21.1285 93.001 21.1185 92.791 21.1185V20.4785Z"
      fill="#737A7F"
    ></path>
    <path
      d="M104.581 20.4785H113.271L114.361 23.3085L113.631 23.5585C113.471 23.0885 113.281 22.7185 113.071 22.4585C112.871 22.1785 112.631 21.9585 112.351 21.7785C112.081 21.5985 111.801 21.4685 111.511 21.4085C111.221 21.3485 110.711 21.3085 109.961 21.3085H107.361V25.2385H108.661C109.131 25.2385 109.501 25.1585 109.751 24.9985C109.991 24.8385 110.161 24.6285 110.261 24.3885C110.321 24.2085 110.361 23.8885 110.361 23.4485V23.2585H111.091V27.9985H110.361V27.5985C110.361 27.2385 110.341 26.9685 110.281 26.8185C110.221 26.6585 110.131 26.5085 109.981 26.3685C109.841 26.2285 109.681 26.1285 109.511 26.0785C109.341 26.0285 109.051 26.0085 108.651 26.0085H107.351V29.4785C107.351 29.8385 107.361 30.0585 107.411 30.1385C107.441 30.2085 107.501 30.2785 107.581 30.3185C107.641 30.3485 107.851 30.3685 108.201 30.3685H109.811C110.701 30.3685 111.401 30.2585 111.911 30.0485C112.411 29.8285 112.851 29.5085 113.231 29.0585C113.541 28.7185 113.831 28.2285 114.101 27.5985L114.801 27.8485L113.601 31.2085H104.551V30.5785H104.861C105.231 30.5785 105.451 30.5585 105.531 30.5085C105.671 30.4485 105.771 30.3385 105.841 30.1785C105.891 30.0885 105.921 29.8685 105.921 29.5285V22.0885C105.921 21.7585 105.891 21.5385 105.811 21.4285C105.741 21.3285 105.631 21.2385 105.471 21.1785C105.381 21.1385 105.081 21.1285 104.541 21.1285V20.4885L104.581 20.4785Z"
      fill="#737A7F"
    ></path>
    <path
      d="M115.9 20.479H121.45C122.5 20.479 123.29 20.589 123.83 20.809C124.37 21.039 124.78 21.349 125.08 21.749C125.37 22.159 125.52 22.639 125.52 23.179C125.52 23.749 125.38 24.239 125.1 24.669C124.82 25.109 124.42 25.449 123.88 25.699C123.35 25.939 122.66 26.069 121.77 26.079L124.57 29.539C124.8 29.829 124.94 29.999 125.02 30.069C125.2 30.229 125.38 30.349 125.58 30.429C125.79 30.509 126 30.549 126.24 30.549H126.43V31.179H124L120.09 26.059H118.71V29.399C118.71 29.759 118.72 29.989 118.75 30.069C118.81 30.239 118.91 30.359 119.02 30.429C119.14 30.499 119.39 30.539 119.75 30.539H120.02V31.169H115.91V30.539H116.29C116.56 30.539 116.75 30.529 116.85 30.489C116.94 30.449 117.03 30.389 117.11 30.299C117.18 30.209 117.23 30.099 117.27 29.959C117.28 29.909 117.29 29.639 117.29 29.189V22.139C117.29 21.839 117.26 21.609 117.19 21.479C117.13 21.339 117.05 21.239 116.94 21.189C116.82 21.129 116.63 21.099 116.36 21.099H115.91V20.459M118.7 21.299V25.339H120.9C121.66 25.339 122.16 25.289 122.47 25.209C122.89 25.089 123.24 24.859 123.48 24.529C123.73 24.199 123.85 23.779 123.85 23.269C123.85 22.849 123.76 22.479 123.58 22.179C123.4 21.889 123.16 21.669 122.85 21.519C122.53 21.379 122.07 21.299 121.46 21.299H118.69H118.7Z"
      fill="#737A7F"
    ></path>
    <path
      d="M134.381 20.4791H134.931L135.741 23.7891L135.011 23.9891C134.561 23.0691 133.981 22.3391 133.241 21.8091C132.631 21.3591 131.971 21.1491 131.231 21.1491C130.781 21.1491 130.391 21.2191 130.031 21.3891C129.681 21.5491 129.411 21.7591 129.241 22.0191C129.061 22.2791 128.971 22.5291 128.971 22.7991C128.971 23.0391 129.031 23.2691 129.171 23.4991C129.311 23.7191 129.531 23.9191 129.791 24.0891C130.081 24.2591 130.541 24.4391 131.191 24.6291L133.191 25.2091C133.441 25.2791 133.801 25.4091 134.271 25.6191C134.731 25.8291 135.101 26.0391 135.351 26.2691C135.611 26.4991 135.811 26.7891 135.951 27.1091C136.101 27.4391 136.181 27.7991 136.181 28.1891C136.181 29.0391 135.811 29.7891 135.071 30.4191C134.321 31.0491 133.351 31.3691 132.171 31.3691C131.561 31.3691 131.011 31.2891 130.541 31.0991C130.061 30.9291 129.531 30.6191 128.971 30.1491L128.611 31.1891H128.081L127.361 27.3591L128.091 27.2091C128.351 27.9191 128.701 28.5091 129.121 28.9991C129.551 29.4991 130.031 29.8691 130.561 30.1291C131.081 30.3791 131.611 30.4991 132.161 30.4991C132.901 30.4991 133.531 30.2791 134.091 29.8291C134.551 29.4591 134.771 29.0191 134.771 28.5191C134.771 28.0591 134.611 27.6791 134.281 27.3791C133.931 27.0791 133.341 26.7991 132.471 26.5491L130.551 25.9891C129.481 25.6791 128.721 25.2791 128.271 24.7891C127.831 24.3091 127.611 23.7491 127.611 23.1191C127.611 22.6191 127.751 22.1691 128.041 21.7491C128.331 21.3291 128.761 20.9891 129.341 20.7091C129.941 20.4191 130.591 20.2891 131.291 20.2891C131.881 20.2891 132.451 20.3791 132.981 20.5991C133.361 20.7391 133.721 20.9491 134.031 21.1991L134.361 20.4691L134.381 20.4791Z"
      fill="#737A7F"
    ></path>
    <path
      d="M137.5 20.4785H141.53V21.1185H141.23C140.94 21.1185 140.73 21.1585 140.61 21.2485C140.47 21.3285 140.38 21.4485 140.32 21.5985C140.26 21.7485 140.23 22.0485 140.23 22.4885V29.4385C140.23 29.7885 140.26 30.0285 140.34 30.1585C140.39 30.2985 140.49 30.4085 140.61 30.4685C140.73 30.5385 140.93 30.5685 141.24 30.5685H141.54V31.1985H137.51V30.5685H137.84C138.13 30.5685 138.34 30.5385 138.47 30.4585C138.59 30.3985 138.68 30.2985 138.73 30.1685C138.79 30.0485 138.81 29.7985 138.81 29.4285V22.3485C138.81 21.9385 138.79 21.6685 138.73 21.5285C138.67 21.3985 138.58 21.2885 138.47 21.2185C138.34 21.1585 138.13 21.1185 137.84 21.1185H137.51V20.4785H137.5Z"
      fill="#737A7F"
    ></path>
    <path
      d="M143.181 20.1291H143.711L143.801 20.4791H150.401L150.461 20.1291H151.001L152.111 23.2691L151.391 23.4991C151.071 22.6591 150.661 22.0791 150.221 21.7391C149.771 21.4091 149.191 21.2391 148.491 21.2391C148.201 21.2391 148.021 21.2491 147.981 21.2791C147.911 21.2991 147.881 21.3391 147.851 21.3991C147.831 21.4491 147.811 21.6291 147.811 21.9291V29.3491C147.811 29.7091 147.831 29.9491 147.871 30.0891C147.901 30.2091 147.971 30.3091 148.041 30.3791C148.101 30.4391 148.201 30.4891 148.331 30.5191C148.461 30.5491 148.741 30.5591 149.191 30.5691V31.1991H145.091V30.5691C145.541 30.5691 145.801 30.5491 145.901 30.5191C146.081 30.4691 146.201 30.3691 146.281 30.2291C146.361 30.0791 146.401 29.8091 146.401 29.4191V21.8191C146.401 21.5791 146.391 21.4291 146.361 21.3891C146.351 21.3391 146.301 21.2991 146.231 21.2691C146.171 21.2391 146.041 21.2191 145.851 21.2191C145.291 21.2191 144.861 21.2991 144.521 21.4291C144.191 21.5791 143.881 21.8191 143.571 22.1591C143.281 22.4991 143.031 22.9391 142.831 23.4891L142.111 23.2591L143.201 20.1191L143.181 20.1291Z"
      fill="#737A7F"
    ></path>
    <path
      d="M152.58 20.4785H156.62V21.1185H156.31C156.03 21.1185 155.81 21.1585 155.69 21.2485C155.56 21.3285 155.46 21.4485 155.4 21.5985C155.34 21.7485 155.31 22.0485 155.31 22.4885V29.4385C155.31 29.7885 155.34 30.0285 155.42 30.1585C155.47 30.2985 155.56 30.4085 155.69 30.4685C155.8 30.5385 156.01 30.5685 156.31 30.5685H156.62V31.1985H152.58V30.5685H152.91C153.21 30.5685 153.42 30.5385 153.55 30.4585C153.67 30.3985 153.76 30.2985 153.81 30.1685C153.87 30.0485 153.89 29.7985 153.89 29.4285V22.3485C153.89 21.9385 153.87 21.6685 153.81 21.5285C153.76 21.3985 153.67 21.2885 153.55 21.2185C153.42 21.1585 153.21 21.1185 152.91 21.1185H152.58V20.4785Z"
      fill="#737A7F"
    ></path>
    <path
      d="M65.2794 34.4477H65.7995L65.8794 34.8877H72.4894L72.5495 34.4477H73.0994L74.2094 38.1777L73.4795 38.4677C73.1495 37.4677 72.7595 36.7777 72.2995 36.3877C71.8595 35.9877 71.2795 35.7877 70.5795 35.7877C70.2895 35.7877 70.1094 35.7977 70.0594 35.8277C69.9994 35.8577 69.9594 35.8977 69.9494 35.9677C69.9194 36.0377 69.9095 36.2377 69.9095 36.5977V45.3477C69.9095 45.7677 69.9095 46.0577 69.9695 46.2077C70.0095 46.3577 70.0695 46.4577 70.1395 46.5377C70.2095 46.6277 70.3095 46.6777 70.4395 46.7077C70.5595 46.7477 70.8394 46.7577 71.2794 46.7677V47.5177H67.1795V46.7677C67.6195 46.7577 67.8995 46.7477 67.9995 46.7077C68.1795 46.6577 68.3094 46.5377 68.3794 46.3677C68.4494 46.1977 68.4894 45.8877 68.4894 45.4277V36.4677C68.4894 36.1977 68.4694 36.0177 68.4494 35.9577C68.4294 35.8977 68.3895 35.8577 68.3195 35.8177C68.2595 35.7977 68.1295 35.7677 67.9395 35.7677C67.3895 35.7677 66.9495 35.8477 66.6195 36.0177C66.2795 36.1877 65.9694 36.4777 65.6694 36.8877C65.3794 37.2777 65.1194 37.8077 64.9194 38.4477L64.1895 38.1577L65.2995 34.4277L65.2794 34.4477Z"
      fill="#737A7F"
    ></path>
    <path
      d="M74.7793 36.8086H83.4793L84.5493 39.6286L83.8293 39.8886C83.6693 39.4186 83.4893 39.0486 83.2793 38.7886C83.0693 38.5286 82.8493 38.2986 82.5593 38.1086C82.2793 37.9186 81.9993 37.7986 81.7093 37.7286C81.4193 37.6686 80.9193 37.6386 80.1693 37.6386H77.5793V41.5586H78.8693C79.3493 41.5586 79.7093 41.4886 79.9593 41.3186C80.2093 41.1486 80.3793 40.9586 80.4793 40.7086C80.5493 40.5386 80.5793 40.2186 80.5793 39.7686V39.5986H81.3093V44.3386H80.5793V43.9286C80.5793 43.5586 80.5593 43.3086 80.5093 43.1586C80.4493 42.9986 80.3493 42.8386 80.2093 42.7086C80.0693 42.5686 79.9093 42.4686 79.7393 42.4286C79.5693 42.3686 79.2793 42.3486 78.8793 42.3486H77.5893V45.8186C77.5893 46.1886 77.5993 46.4086 77.6393 46.4786C77.6593 46.5586 77.7193 46.6086 77.7993 46.6486C77.8693 46.6886 78.0893 46.7086 78.4293 46.7086H80.0293C80.9193 46.7086 81.6193 46.5986 82.1293 46.3886C82.6293 46.1686 83.0793 45.8386 83.4593 45.3986C83.7693 45.0586 84.0493 44.5686 84.3193 43.9486L85.0193 44.1886L83.8293 47.5486H74.7793V46.9086H75.0993C75.4593 46.9086 75.6793 46.8786 75.7693 46.8386C75.9093 46.7786 76.0093 46.6786 76.0793 46.5286C76.1293 46.4186 76.1593 46.1986 76.1593 45.8686V38.4186C76.1593 38.0986 76.1293 37.8786 76.0593 37.7586C75.9993 37.6586 75.8693 37.5786 75.7093 37.5186C75.6193 37.4786 75.3193 37.4686 74.7893 37.4686V36.8286L74.7793 36.8086Z"
      fill="#737A7F"
    ></path>
    <path
      d="M86.1702 36.8069H90.2902V37.4469H90.0102C89.6702 37.4469 89.4302 37.4869 89.2902 37.5569C89.1502 37.6469 89.0602 37.7669 89.0002 37.9469C88.9602 38.0669 88.9302 38.2769 88.9302 38.5669V42.6769L92.9802 38.4069C93.2002 38.1669 93.3202 38.0269 93.3602 37.9469C93.3902 37.8769 93.4202 37.8069 93.4202 37.7269C93.4202 37.6269 93.3702 37.5569 93.2802 37.5069C93.1902 37.4569 93.0001 37.4369 92.7001 37.4369H92.4501V36.7969H96.2502V37.4369C95.9602 37.4269 95.6802 37.4569 95.4402 37.5369C95.1902 37.6069 94.9902 37.6969 94.8502 37.8169C94.5402 38.0469 94.3102 38.2369 94.1902 38.3669L91.3202 41.3069L94.6002 45.6769C94.8902 46.0769 95.1202 46.3469 95.3102 46.4969C95.4702 46.6369 95.6601 46.7369 95.8401 46.8069C96.0301 46.8669 96.3101 46.8969 96.7001 46.8969V47.5369H92.1502V46.8969H92.4202C92.7202 46.8969 92.9001 46.8969 92.9501 46.8669C93.0401 46.8469 93.1102 46.8069 93.1602 46.7469C93.2102 46.6869 93.2402 46.6269 93.2402 46.5569C93.2402 46.4269 93.0702 46.1169 92.7102 45.6369L90.2902 42.3769L88.9302 43.7569V45.8569C88.9302 46.2069 88.9702 46.4369 89.0402 46.5569C89.1102 46.6869 89.2102 46.7769 89.3602 46.8369C89.4802 46.8769 89.7902 46.9069 90.2902 46.9069V47.5469H86.1702V46.9069H86.4902C86.8002 46.9069 87.0202 46.8669 87.1402 46.8069C87.2602 46.7469 87.3502 46.6269 87.4102 46.4869C87.4702 46.3369 87.5102 46.0669 87.5102 45.6869V38.5869C87.5102 38.2169 87.4702 37.9669 87.4102 37.8269C87.3502 37.6969 87.2602 37.5969 87.1502 37.5469C87.0302 37.4769 86.7802 37.4569 86.4002 37.4569H86.1602V36.8169L86.1702 36.8069Z"
      fill="#737A7F"
    ></path>
    <path
      d="M97.3401 36.8071H100.65L105.52 44.8471V38.7271C105.52 38.3671 105.48 38.0971 105.41 37.9371C105.34 37.7771 105.25 37.6571 105.1 37.5571C104.96 37.4871 104.76 37.4471 104.48 37.4471H104.21V36.8071H107.76V37.4471H107.56C107.24 37.4471 107.04 37.4671 106.92 37.5271C106.77 37.5971 106.65 37.7371 106.57 37.9171C106.49 38.1071 106.45 38.3771 106.45 38.7271V47.5271H105.52L99.6401 37.8571V45.5171C99.6401 45.9471 99.6401 46.1971 99.6801 46.2871C99.7101 46.4171 99.7701 46.5271 99.8701 46.6171C99.9601 46.7171 100.06 46.7771 100.19 46.8171C100.32 46.8571 100.56 46.8671 100.95 46.8771V47.5171H97.3301V46.8771H97.5401C97.9101 46.8771 98.1601 46.8371 98.3001 46.7671C98.4301 46.6971 98.5201 46.5771 98.6001 46.3971C98.6701 46.2171 98.7201 45.9371 98.7201 45.5071V38.7071C98.7201 38.2771 98.6901 38.0171 98.6801 37.9171C98.6301 37.7471 98.5501 37.6171 98.4101 37.5371C98.2801 37.4671 98.0201 37.4271 97.6201 37.4271H97.3301V36.7871L97.3401 36.8071Z"
      fill="#737A7F"
    ></path>
    <path
      d="M114.739 36.6372C115.729 36.6372 116.609 36.8772 117.409 37.3372C118.259 37.8372 118.909 38.5072 119.379 39.3072C119.839 40.1172 120.069 41.0472 120.069 42.1072C120.069 43.7572 119.549 45.1072 118.529 46.1372C117.509 47.1772 116.199 47.7072 114.619 47.7072C112.839 47.7072 111.439 47.0772 110.409 45.8272C109.549 44.8072 109.129 43.5972 109.129 42.1772C109.129 41.1172 109.369 40.1672 109.859 39.3372C110.329 38.5072 110.999 37.8472 111.879 37.3372C112.759 36.8572 113.719 36.6172 114.759 36.6172M114.759 37.4572C113.969 37.4572 113.269 37.6472 112.709 38.0072C112.129 38.3772 111.679 38.9172 111.319 39.6172C110.979 40.3272 110.799 41.2172 110.799 42.2472C110.799 43.2772 110.979 44.0972 111.309 44.7872C111.649 45.4872 112.109 46.0172 112.679 46.3872C113.259 46.7472 113.899 46.9372 114.629 46.9372C115.359 46.9372 115.979 46.7572 116.509 46.3872C117.059 46.0372 117.519 45.4572 117.879 44.6872C118.229 43.9172 118.409 43.0572 118.409 42.1172C118.409 41.1772 118.229 40.2672 117.879 39.4672C117.569 38.7772 117.159 38.2872 116.649 37.9572C116.139 37.6272 115.509 37.4572 114.749 37.4572H114.759Z"
      fill="#737A7F"
    ></path>
    <path
      d="M121.569 36.8069H125.709V37.4469H125.329C125.039 37.4469 124.819 37.4669 124.699 37.5369C124.569 37.5869 124.489 37.6769 124.429 37.7869C124.369 37.8869 124.339 38.0869 124.339 38.3669V45.8269C124.339 46.1669 124.349 46.3669 124.379 46.4369C124.409 46.5369 124.479 46.5969 124.579 46.6369C124.649 46.6769 124.849 46.6869 125.199 46.6869H125.789C126.459 46.6869 127.039 46.5869 127.539 46.3969C128.029 46.2069 128.439 45.9269 128.809 45.5769C129.159 45.2069 129.509 44.6669 129.829 43.9469L130.529 44.1869L129.319 47.5369H121.559V46.8969H121.899C122.229 46.8969 122.449 46.8669 122.559 46.8069C122.669 46.7569 122.759 46.6569 122.819 46.5269C122.879 46.3869 122.909 46.1669 122.909 45.8469V38.5769C122.909 38.1969 122.879 37.9369 122.829 37.8069C122.769 37.6669 122.689 37.5769 122.579 37.5269C122.469 37.4569 122.239 37.4369 121.899 37.4369H121.559V36.7969L121.569 36.8069Z"
      fill="#737A7F"
    ></path>
    <path
      d="M136.749 36.6372C137.739 36.6372 138.619 36.8772 139.409 37.3372C140.259 37.8372 140.909 38.5072 141.379 39.3072C141.839 40.1172 142.059 41.0472 142.059 42.1072C142.059 43.7572 141.549 45.1072 140.529 46.1372C139.499 47.1772 138.189 47.7072 136.609 47.7072C134.839 47.7072 133.439 47.0772 132.399 45.8272C131.549 44.8072 131.129 43.5972 131.129 42.1772C131.129 41.1172 131.379 40.1672 131.849 39.3372C132.329 38.5072 133.009 37.8472 133.879 37.3372C134.759 36.8572 135.719 36.6172 136.759 36.6172M136.759 37.4572C135.959 37.4572 135.279 37.6472 134.699 38.0072C134.119 38.3772 133.659 38.9172 133.319 39.6172C132.959 40.3272 132.799 41.2172 132.799 42.2472C132.799 43.2772 132.959 44.0972 133.299 44.7872C133.639 45.4872 134.099 46.0172 134.669 46.3872C135.239 46.7472 135.889 46.9372 136.609 46.9372C137.329 46.9372 137.959 46.7572 138.499 46.3872C139.049 46.0372 139.499 45.4572 139.859 44.6872C140.219 43.9172 140.399 43.0572 140.399 42.1172C140.399 41.1772 140.219 40.2672 139.859 39.4672C139.549 38.7772 139.139 38.2872 138.629 37.9572C138.129 37.6272 137.499 37.4572 136.729 37.4572H136.759Z"
      fill="#737A7F"
    ></path>
    <path
      d="M152.099 36.8074H152.659L153.529 40.1174L152.799 40.3474C152.349 39.2974 151.809 38.5574 151.219 38.1074C150.619 37.6574 149.949 37.4374 149.199 37.4374C148.099 37.4374 147.199 37.8874 146.459 38.7974C145.719 39.6974 145.349 40.7874 145.349 42.0274C145.349 42.9374 145.549 43.7574 145.919 44.5074C146.299 45.2574 146.799 45.8374 147.419 46.2374C148.049 46.6274 148.729 46.8174 149.429 46.8174C149.889 46.8174 150.319 46.7474 150.729 46.5674C151.139 46.3974 151.479 46.2074 151.739 45.9774C151.929 45.8074 152.049 45.6074 152.109 45.3974C152.179 45.1974 152.209 44.8974 152.209 44.5274V44.0174C152.209 43.6174 152.159 43.3274 152.069 43.1574C151.969 42.9974 151.849 42.8774 151.669 42.8074C151.529 42.7574 151.169 42.7274 150.579 42.7274V42.0874H154.909V42.7274H154.559C154.279 42.7274 154.069 42.7574 153.959 42.8074C153.849 42.8574 153.759 42.9574 153.719 43.0874C153.669 43.2074 153.639 43.4474 153.639 43.7974V47.5074H152.879L152.479 46.5774C152.039 46.8874 151.589 47.1174 151.109 47.2974C150.369 47.5574 149.649 47.6874 148.939 47.6874C147.499 47.6874 146.269 47.1574 145.239 46.0974C144.209 45.0474 143.699 43.7174 143.699 42.1374C143.699 40.5574 144.219 39.2674 145.259 38.1974C146.309 37.1274 147.549 36.6074 149.009 36.6074C149.369 36.6074 149.719 36.6374 150.089 36.7174C150.449 36.7874 150.759 36.8874 151.059 37.0174C151.269 37.1074 151.529 37.2674 151.829 37.4874L152.089 36.7774L152.099 36.8074Z"
      fill="#737A7F"
    ></path>
    <path
      d="M156.1 36.8086H160.14V37.4486H159.83C159.54 37.4486 159.34 37.4886 159.21 37.5686C159.07 37.6586 158.98 37.7686 158.92 37.9186C158.86 38.0786 158.83 38.3686 158.83 38.8186V45.7686C158.83 46.1086 158.86 46.3486 158.92 46.4886C158.98 46.6386 159.07 46.7386 159.2 46.7986C159.31 46.8586 159.52 46.8986 159.83 46.8986H160.14V47.5386H156.1V46.8986H156.42C156.72 46.8986 156.94 46.8586 157.05 46.7986C157.18 46.7286 157.27 46.6386 157.33 46.5086C157.38 46.3786 157.41 46.1286 157.41 45.7686V38.6686C157.41 38.2686 157.38 37.9986 157.33 37.8686C157.27 37.7286 157.18 37.6186 157.05 37.5486C156.94 37.4786 156.72 37.4586 156.42 37.4586H156.1V36.8186V36.8086Z"
      fill="#737A7F"
    ></path>
    <path
      d="M64.1602 50.8594H67.5702L70.6902 60.8794L73.7602 50.8594H77.0201V51.6094H76.7402C76.4102 51.6094 76.1802 51.6494 76.0702 51.7094C75.9602 51.7694 75.8702 51.8894 75.8102 52.0494C75.7402 52.2194 75.7102 52.4894 75.7102 52.8594V61.2494C75.7102 61.7694 75.7302 62.1094 75.7902 62.2694C75.8402 62.4294 75.9302 62.5494 76.0602 62.6294C76.1802 62.7194 76.4102 62.7494 76.7502 62.7494H77.0302V63.5094H72.9902V62.7494H73.2701C73.5301 62.7494 73.7201 62.7294 73.8401 62.6794C73.9501 62.6294 74.0601 62.5494 74.1301 62.4494C74.2101 62.3294 74.2502 62.2094 74.2502 62.0794C74.2802 61.8294 74.2902 61.6394 74.2902 61.4994V52.1894L70.8202 63.5094H70.0201L66.5402 52.3494V61.3294C66.5402 61.7794 66.5702 62.0894 66.6402 62.2494C66.7002 62.4094 66.8001 62.5394 66.9501 62.6194C67.0901 62.7194 67.3502 62.7494 67.7102 62.7494H67.9602V63.5094H64.1802V62.7494H64.4002C64.7702 62.7494 65.0302 62.6994 65.1702 62.6094C65.3302 62.5094 65.4402 62.3894 65.5102 62.2294C65.5802 62.0594 65.6102 61.7394 65.6102 61.2494V52.9594C65.6102 52.5094 65.5802 52.1994 65.5302 52.0494C65.4802 51.9094 65.3902 51.7994 65.2502 51.7194C65.1202 51.6494 64.8902 51.6194 64.5602 51.6194H64.1902V50.8694L64.1602 50.8594Z"
      fill="#737A7F"
    ></path>
    <path
      d="M82.6199 52.7893H83.8799L87.2099 61.7493C87.3699 62.1993 87.5399 62.4993 87.6999 62.6493C87.8699 62.7993 88.0899 62.8693 88.3699 62.8693H88.5399V63.5093H84.7199V62.8693C84.8499 62.8493 84.9699 62.8493 85.0799 62.8493C85.3199 62.8493 85.4899 62.8193 85.5699 62.7593C85.7099 62.6693 85.7899 62.5493 85.7899 62.3993C85.7899 62.2893 85.7199 62.0293 85.5699 61.5993L84.8599 59.5193H80.9899L80.1399 61.8493C80.0599 62.0893 80.0199 62.2493 80.0199 62.3593C80.0199 62.4693 80.0499 62.5493 80.0999 62.6193C80.1499 62.6993 80.2199 62.7593 80.3099 62.7893C80.3999 62.8393 80.5499 62.8593 80.7599 62.8593C80.8899 62.8593 81.0099 62.8593 81.0999 62.8593V63.4993H77.9199V62.8593C78.2199 62.8593 78.4299 62.8293 78.5599 62.7693C78.6899 62.7193 78.8099 62.6193 78.9099 62.4893C78.9999 62.3593 79.1299 62.0793 79.2899 61.6593L82.6099 52.7793M81.2499 58.7593H84.5599L82.9099 54.1593L81.2499 58.7593Z"
      fill="#737A7F"
    ></path>
    <path
      d="M89.3594 52.7891H94.8894C95.9394 52.7891 96.7294 52.8891 97.2694 53.1091C97.8094 53.3291 98.2294 53.6491 98.5094 54.0591C98.7994 54.4691 98.9394 54.9591 98.9394 55.4991C98.9394 56.0391 98.7994 56.5491 98.5194 56.9791C98.2494 57.4091 97.8294 57.7591 97.2994 58.0091C96.7694 58.2491 96.0694 58.3791 95.2094 58.3891L97.9994 61.8591C98.2294 62.1491 98.3794 62.3191 98.4594 62.3891C98.6294 62.5491 98.8194 62.6691 99.0194 62.7391C99.2194 62.8291 99.4294 62.8691 99.6694 62.8691H99.8694V63.5091H97.4394L93.5194 58.3891H92.1494V61.7391C92.1494 62.0991 92.1594 62.3191 92.1894 62.4091C92.2394 62.5791 92.3394 62.6991 92.4594 62.7691C92.5794 62.8291 92.8294 62.8691 93.1794 62.8691H93.4594V63.5091H89.3694V62.8691H89.7394C90.0094 62.8691 90.2094 62.8491 90.2894 62.8191C90.3894 62.7791 90.4694 62.7091 90.5494 62.6291C90.6294 62.5391 90.6794 62.4291 90.7094 62.2891C90.7194 62.2291 90.7294 61.9791 90.7294 61.5091V54.4691C90.7294 54.1591 90.7094 53.9391 90.6494 53.8091C90.5794 53.6791 90.4994 53.5691 90.3894 53.5191C90.2694 53.4591 90.0794 53.4391 89.8094 53.4391H89.3694V52.8091M92.1594 53.6391V57.6891H94.3494C95.0994 57.6891 95.6094 57.6391 95.9294 57.5391C96.3494 57.4191 96.6894 57.1891 96.9294 56.8691C97.1694 56.5391 97.2994 56.1291 97.2994 55.6091C97.2994 55.1791 97.2094 54.8191 97.0394 54.5191C96.8594 54.2291 96.6194 53.9991 96.2994 53.8591C95.9894 53.7091 95.5294 53.6391 94.9194 53.6391H92.1594Z"
      fill="#737A7F"
    ></path>
    <path
      d="M104.64 52.7893H105.9L109.22 61.7493C109.38 62.1993 109.55 62.4993 109.71 62.6493C109.88 62.7993 110.11 62.8693 110.39 62.8693H110.55V63.5093H106.74V62.8693C106.86 62.8493 106.99 62.8493 107.1 62.8493C107.34 62.8493 107.5 62.8193 107.59 62.7593C107.73 62.6693 107.8 62.5493 107.8 62.3993C107.8 62.2893 107.73 62.0293 107.59 61.5993L106.88 59.5193H103L102.16 61.8493C102.07 62.0893 102.03 62.2493 102.03 62.3593C102.03 62.4693 102.06 62.5493 102.11 62.6193C102.16 62.6993 102.24 62.7593 102.33 62.7893C102.43 62.8393 102.58 62.8593 102.78 62.8593C102.92 62.8593 103.02 62.8593 103.11 62.8593V63.4993H99.9297V62.8593C100.24 62.8593 100.45 62.8293 100.57 62.7693C100.7 62.7193 100.82 62.6193 100.91 62.4893C101 62.3593 101.14 62.0793 101.29 61.6593L104.62 52.7793M103.27 58.7593H106.58L104.93 54.1593L103.27 58.7593Z"
      fill="#737A7F"
    ></path>
    <path
      d="M97.2799 2.76881C97.6699 2.13881 97.2999 2.36881 97.2999 2.36881C97.1699 2.67881 97.0499 2.45881 97.0499 2.45881C96.5999 2.06881 97.5299 0.548811 97.5299 0.548811C97.6699 0.258811 97.3599 0.548811 97.3599 0.548811C96.2199 2.41881 96.6999 2.85881 96.6999 2.85881C96.9499 3.36881 97.2899 2.75881 97.2899 2.75881L97.2799 2.76881Z"
      fill="#92117E"
    ></path>
    <path
      d="M159.83 10.71C159.83 10.71 159.39 4.67995 159.02 2.78995C159.02 2.78995 158.9 2.22995 159.21 2.60995L159.63 3.13995C159.63 3.13995 159.75 2.59995 159.44 2.12995C159.44 2.12995 159.06 1.33995 159.01 1.07995C159.01 1.07995 158.78 0.179954 158.57 0.599954C158.57 0.599954 158.11 1.38995 158.31 1.67995L159 7.89995C159 7.89995 159.54 11.18 159.46 12.13C159.46 12.13 159.88 11.6 159.84 10.7L159.83 10.71Z"
      fill="#92117E"
    ></path>
    <path
      d="M156.5 2.38994C156.17 2.94994 153.76 4.83994 153.17 5.28994C153.54 5.04994 154.54 4.53994 154.54 4.53994C155.41 4.08994 156.7 2.57994 156.7 2.57994C157.16 2.99994 157.28 2.67994 157.28 2.67994C157.57 2.23994 156.96 1.92994 156.96 1.92994C156.96 1.92994 157.15 1.51994 156.98 0.719939C156.81 -0.0700612 156.03 0.759939 156.03 0.759939C155.44 1.30994 155.79 1.79994 155.79 1.79994L156.49 2.38994H156.5ZM156.45 1.01994C156.72 0.969939 156.72 1.71994 156.72 1.71994L156.22 1.35994C155.96 1.08994 156.45 1.00994 156.45 1.00994V1.01994Z"
      fill="#92117E"
    ></path>
    <path
      d="M153.049 5.38906C153.049 5.38906 153.099 5.34906 153.169 5.28906C153.109 5.32906 153.059 5.36906 153.049 5.38906Z"
      fill="#92117E"
    ></path>
    <path
      d="M156.58 5.05964C156.78 4.60964 156.51 4.86964 156.51 4.86964L155.78 6.23964C155.47 6.84964 155.95 7.15964 155.95 7.15964C156.55 7.18964 156.52 6.39964 156.52 6.39964C156.37 6.68964 156.12 6.55964 156.12 6.55964C155.9 6.47964 156.12 6.06964 156.12 6.06964L156.58 5.06964V5.05964Z"
      fill="#92117E"
    ></path>
    <path
      d="M157.119 8.62021C156.159 7.93021 155.459 9.60021 155.459 9.60021C154.989 10.9402 156.219 11.0302 156.219 11.0302C156.679 10.9602 157.509 11.0302 157.509 11.0302C158.069 11.3202 157.649 11.8902 157.649 11.8902C156.979 12.8902 155.459 14.0202 155.459 14.0202C154.339 14.9502 153.219 14.5402 153.219 14.5402C151.499 13.6702 152.559 11.6902 152.559 11.6902C153.179 11.6602 153.559 11.2402 153.559 11.2402C154.299 9.66021 153.609 8.74021 153.609 8.74021C153.209 8.10021 153.069 9.48021 153.069 9.48021C153.069 9.72021 153.409 9.99021 153.409 9.99021C153.589 10.4402 152.469 10.5302 152.469 10.5302C151.669 10.4202 151.819 9.45021 151.819 9.45021C151.899 8.82021 151.329 9.28021 151.329 9.28021C149.909 10.4802 149.349 10.4002 149.349 10.4002C149.369 9.95021 148.569 9.30021 148.569 9.30021C147.459 8.53021 146.759 10.2202 146.759 10.2202C146.319 11.5602 147.369 11.7602 147.369 11.7602C148.109 12.0502 149.109 11.6602 149.109 11.6602V11.9802C148.029 13.4802 146.259 14.3402 146.259 14.3402C144.179 15.3902 143.579 13.6202 143.579 13.6202C143.099 12.4202 144.329 11.3902 144.329 11.3902C144.939 10.8702 144.959 9.81021 144.939 9.38021C144.939 9.34021 144.939 9.27021 144.939 9.14021C144.939 8.56021 144.419 7.92021 144.419 7.92021C143.929 7.41021 144.259 7.34021 144.259 7.34021C144.719 7.52021 144.589 7.19021 144.589 7.19021L143.529 6.29021C143.179 5.93021 143.189 6.25021 143.189 6.25021L143.169 7.26021L143.429 7.58021C143.509 7.95021 144.439 9.50021 144.439 9.50021C144.689 10.0102 144.239 10.3002 144.239 10.3002C143.379 11.3702 140.299 13.0702 140.299 13.0702C138.919 14.0002 135.039 15.5202 135.039 15.5202C135.369 15.5202 138.879 14.8002 138.879 14.8002C139.219 14.7002 139.859 14.4102 139.859 14.4102C140.689 13.9602 143.369 12.3202 143.369 12.3202C142.409 15.1402 144.509 15.7802 144.509 15.7802C146.729 16.1902 149.059 13.2602 149.059 13.2602C149.499 12.7502 149.459 11.7002 149.459 11.7002L149.609 11.4802C149.869 11.4802 150.609 10.8102 150.609 10.8102C150.879 10.5102 151.349 10.3502 151.349 10.3502C151.349 11.6402 152.209 11.7102 152.209 11.7102C151.969 12.1002 151.879 13.3902 151.879 13.3902C151.799 15.6502 153.649 15.6802 153.649 15.6802C155.559 15.7902 157.769 12.8402 157.769 12.8402C158.189 12.3602 158.249 10.9402 158.249 10.9402C158.279 9.41021 157.129 8.64021 157.129 8.64021L157.119 8.62021ZM157.059 9.95021L156.309 9.99021C156.309 9.99021 155.959 9.85021 156.369 9.60021C156.369 9.60021 156.699 9.40021 157.119 9.78021C157.119 9.78021 157.359 9.90021 157.059 9.95021ZM147.489 10.6502C147.489 10.6502 147.259 10.4902 147.669 10.3302C147.669 10.3302 148.049 10.1002 148.489 10.6302L147.489 10.6502Z"
      fill="#92117E"
    ></path>
    <path
      d="M138.479 10.2188C139.449 10.3588 140.159 9.05883 140.159 9.05883C140.299 9.40883 140.849 9.65883 140.849 9.65883C142.049 10.1488 142.289 8.88883 142.289 8.88883C142.589 7.71883 141.869 7.37883 141.869 7.37883C141.399 8.15883 141.729 8.37883 141.729 8.37883C141.959 8.72883 141.539 8.57883 141.539 8.57883C140.279 8.57883 140.589 7.85883 140.589 7.85883C140.779 7.39883 140.459 7.63883 140.459 7.63883C139.929 8.71883 139.459 8.94883 139.459 8.94883C137.959 9.71883 137.989 8.32883 137.989 8.32883C138.269 7.70883 137.889 7.90883 137.889 7.90883C136.469 9.35883 134.559 9.48883 134.559 9.48883C132.499 9.68883 132.469 8.33883 132.469 8.33883C132.589 7.65883 132.139 8.08883 132.139 8.08883C131.169 9.65883 129.839 9.58883 129.839 9.58883C128.449 9.45883 128.519 7.96883 128.519 7.96883C128.819 6.50883 127.559 6.79883 127.559 6.79883C125.539 7.48883 125.069 9.61883 125.069 9.61883C124.459 11.5388 127.259 11.4188 127.259 11.4188C127.909 11.4988 127.929 12.0188 127.929 12.0188C127.259 12.7388 125.119 13.6888 125.119 13.6888C122.439 14.9388 120.879 13.3888 120.879 13.3888C118.979 12.1088 120.569 8.68883 120.569 8.68883C120.779 8.00883 120.309 8.68883 120.309 8.68883C119.839 9.33883 119.549 11.1588 119.549 11.1588C118.759 15.2388 122.639 15.3788 122.639 15.3788C125.019 15.4588 127.909 13.0488 127.909 13.0488C129.199 11.1188 127.759 10.3688 127.759 10.3688C127.049 10.3288 125.979 9.98883 125.979 9.98883C124.739 9.39883 127.169 8.05883 127.169 8.05883C127.899 7.52883 128.109 8.48883 128.109 8.48883C127.939 9.65883 128.859 10.3788 128.859 10.3788C130.399 11.4788 131.709 9.51883 131.709 9.51883C131.959 9.21883 132.029 9.34883 132.029 9.34883C132.549 10.7888 133.989 10.5988 133.989 10.5988C135.479 10.6688 137.379 9.23883 137.379 9.23883C137.469 10.2988 138.469 10.2188 138.469 10.2188H138.479Z"
      fill="#92117E"
    ></path>
    <path
      d="M152.1 6C152.1 6 151.79 6.49 151.67 6.98C151.67 6.98 152.23 7.32 152.52 7.61C152.52 7.61 153.03 7.47 153.11 6.69C153.11 6.69 152.77 6.22 152.1 6Z"
      fill="#92117E"
    ></path>
    <path
      d="M146.699 7.07961C146.699 7.07961 147.249 7.42961 147.549 7.70961C147.549 7.70961 148.059 7.56961 148.139 6.78961C148.139 6.78961 147.809 6.31961 147.129 6.09961C147.129 6.09961 146.809 6.58961 146.699 7.07961Z"
      fill="#92117E"
    ></path>
    <path
      d="M150.55 13.9487C150.55 13.9487 150.95 13.3287 151.05 13.1287C151.05 13.1287 150.59 12.6488 150.04 12.4688L149.48 13.4187C149.48 13.4187 150.23 13.7587 150.36 13.9487V14.1388L149.9 14.9287C149.9 14.9287 150.82 15.4588 150.91 15.6488C150.91 15.6488 151.44 14.9287 151.44 14.7087L150.66 14.1787L150.56 13.9587L150.55 13.9487Z"
      fill="#92117E"
    ></path>
    <path
      d="M153.18 13.1199C153.18 13.1199 153.13 13.3399 153.47 13.0799C153.47 13.0799 154.39 12.4199 155.32 12.1099C155.32 12.1099 155.82 11.2999 155.28 11.5999L153.33 12.6399L153.18 13.1299V13.1199Z"
      fill="#92117E"
    ></path>
    <path
      d="M149.269 4.90924C149.309 4.80924 149.529 4.70924 149.529 4.70924H150.859L149.299 5.80924C150.979 5.60924 151.499 4.47924 151.499 4.47924C152.099 3.85924 151.679 3.79924 151.679 3.79924L150.189 3.63924C149.599 3.58924 149.579 3.77924 149.579 3.77924L149.179 4.52924C148.899 4.91924 149.279 4.91924 149.279 4.91924L149.269 4.90924Z"
      fill="#92117E"
    ></path>
    <path
      d="M151.85 1.58952C152.47 1.60952 152.52 2.70952 152.52 2.70952C152.52 3.18952 152.75 3.02952 152.75 3.02952C152.91 2.82952 152.96 2.21952 152.96 2.21952C153.01 1.21952 153.19 0.989522 153.19 0.989522C153.48 0.629522 153.88 1.45952 153.88 1.45952C154.1 1.03952 153.7 0.529522 153.7 0.529522C152.97 -0.420478 152.87 1.28952 152.87 1.28952C152.82 2.12952 152.66 2.06952 152.66 2.06952C152.41 0.719522 151.67 0.729522 151.67 0.729522C151.05 0.479522 151.2 1.18952 151.2 1.18952C151.11 1.60952 151.84 1.59952 151.84 1.59952L151.85 1.58952Z"
      fill="#92117E"
    ></path>
    <path
      d="M131.57 1.54874C132.23 1.56874 132.29 2.66874 132.29 2.66874C132.29 3.15874 132.54 2.97874 132.54 2.97874C132.71 2.78874 132.78 2.16874 132.78 2.16874C132.82 1.16874 133.03 0.938741 133.03 0.938741C133.33 0.578741 133.77 1.40874 133.77 1.40874C134 0.978741 133.58 0.478741 133.58 0.478741C132.79 -0.471259 132.69 1.23874 132.69 1.23874C132.64 2.07874 132.46 2.01874 132.46 2.01874C132.19 0.668741 131.38 0.688741 131.38 0.688741C130.72 0.448741 130.87 1.14874 130.87 1.14874C130.77 1.56874 131.58 1.55874 131.58 1.55874L131.57 1.54874Z"
      fill="#92117E"
    ></path>
    <path
      d="M149.129 1.0694C149.129 1.0694 149.199 1.1294 149.409 0.709395C149.409 0.709395 149.629 0.189395 148.959 0.529395C148.959 0.529395 144.899 2.5494 144.779 2.6394C144.779 2.6394 144.559 2.9294 144.629 3.2594C144.629 3.2594 148.239 1.3494 149.129 1.0694Z"
      fill="#92117E"
    ></path>
    <path
      d="M146.18 3.54883C146.18 3.54883 144.48 5.38883 145.42 5.88883C145.42 5.88883 146.16 5.87883 145.99 5.19883C145.99 5.19883 145.86 5.04883 145.8 5.32883C145.8 5.32883 145.29 5.62883 145.44 5.07883C145.44 5.07883 146.16 3.89883 146.19 3.54883H146.18Z"
      fill="#92117E"
    ></path>
    <path
      d="M141.14 1.57993C141.14 1.57993 141.33 1.60993 141.5 1.53993C141.5 1.53993 142.01 1.36993 142.53 1.51993C142.53 1.51993 142.69 1.54993 142.41 1.74993L141.07 2.58993C141.07 2.58993 141 2.77993 141.36 2.60993C141.36 2.60993 141.9 2.34993 142.25 2.33993C142.25 2.33993 142.67 2.26993 143.17 1.47993C143.17 1.47993 144.18 0.489935 143.34 0.509935C143.34 0.509935 141.66 0.129935 141.38 0.609935C141.38 0.609935 140.82 1.42993 141.14 1.57993Z"
      fill="#92117E"
    ></path>
    <path
      d="M136.38 5.91031C137.45 5.86031 137.52 4.44031 137.52 4.44031C137.63 3.82031 137.23 4.38031 137.23 4.38031C137.04 4.87031 136.89 4.93031 136.89 4.93031C135.79 4.76031 136.56 3.07031 136.56 3.07031C137.12 2.15031 137.54 0.630305 137.54 0.630305C137.61 0.400305 137.35 0.730305 137.35 0.730305C136.53 1.88031 135.78 4.38031 135.78 4.38031C135.55 5.77031 136.39 5.91031 136.39 5.91031H136.38Z"
      fill="#92117E"
    ></path>
    <path
      d="M139.529 6.54919C139.529 6.54919 139.819 6.60919 140.739 5.42919C140.739 5.42919 141.489 4.15919 140.419 4.30919C140.419 4.30919 139.779 4.73919 139.979 4.95919C139.979 4.95919 140.079 4.98919 140.169 4.88919C140.169 4.88919 140.709 4.77919 140.309 5.45919L139.529 6.53919V6.54919Z"
      fill="#92117E"
    ></path>
    <path
      d="M126.41 2.68981C126.41 2.68981 126.7 2.74981 127.62 1.56981C127.62 1.56981 128.36 0.299813 127.3 0.449813C127.3 0.449813 126.66 0.879813 126.85 1.09981C126.85 1.09981 127.01 1.05981 127.11 0.959813C127.11 0.959813 127.8 0.649813 127.22 1.66981L126.4 2.68981H126.41Z"
      fill="#92117E"
    ></path>
    <path
      d="M140.769 10.5596C140.769 10.5596 138.679 11.4196 138.209 11.6896C138.209 11.6896 137.809 12.1296 138.029 12.3396C138.029 12.3396 140.179 11.3296 140.609 11.1296C140.609 11.1296 140.809 11.1496 140.949 10.8596C140.949 10.8596 141.099 10.2096 140.769 10.5696V10.5596Z"
      fill="#92117E"
    ></path>
    <path
      d="M136.34 11.6399C135.28 12.8699 135.67 13.6299 135.67 13.6299C136.09 14.1999 136.38 13.5799 136.38 13.5799C136.78 12.9699 136.37 13.1499 136.37 13.1499C136.23 13.4399 136.08 13.2799 136.08 13.2799C135.77 12.9399 136.35 11.7499 136.35 11.7499C136.6 11.4299 136.35 11.6399 136.35 11.6399H136.34Z"
      fill="#92117E"
    ></path>
    <path
      d="M130.84 4.47016H132.19L130.88 5.38016C130.88 5.38016 130.73 5.67016 131.24 5.47016C131.24 5.47016 131.85 5.17016 132.13 5.23016L132.76 4.54016C132.76 4.54016 133.74 3.46016 132.83 3.44016L131.19 3.41016C131.19 3.41016 130.56 3.97016 130.57 4.52016C130.57 4.52016 130.61 4.68016 130.83 4.48016L130.84 4.47016Z"
      fill="#92117E"
    ></path>
    <path
      d="M125.89 5.33897C125.89 5.33897 126.55 5.80897 126.64 5.93897C126.64 5.93897 127.02 5.63897 127.17 5.18897C127.17 5.18897 127.1 4.89897 127.46 5.14897L128.31 5.67897L128.78 4.79897C128.78 4.79897 128.15 4.16897 127.77 4.07897C127.77 4.07897 127.51 3.98897 127.14 4.82897L126.32 4.29897C126.32 4.29897 126.19 4.13897 125.95 4.65897C125.95 4.65897 125.47 5.11897 125.9 5.33897H125.89Z"
      fill="#92117E"
    ></path>
    <path
      d="M131.119 13.1692C131.119 13.1692 131.499 12.8792 131.649 12.4192C131.649 12.4192 131.579 12.1292 131.939 12.3792L132.789 12.9192L133.259 12.0392C133.259 12.0392 132.639 11.4092 132.249 11.3192C132.249 11.3192 131.989 11.2292 131.609 12.0692L130.789 11.5392C130.789 11.5392 130.659 11.3792 130.409 11.8992C130.409 11.8992 129.929 12.3592 130.359 12.5792C130.359 12.5792 131.019 13.0492 131.119 13.1792V13.1692Z"
      fill="#92117E"
    ></path>
    <path
      d="M129.16 13.8594C129.16 13.8594 128.75 14.8094 128.53 14.6194L127.72 14.0894C127.72 14.0894 127.59 13.9294 127.34 14.4594C127.34 14.4594 126.86 14.9194 127.29 15.1394C127.29 15.1394 127.94 15.6094 128.05 15.7394C128.05 15.7394 128.43 15.4394 128.59 14.9794C128.59 14.9794 128.51 14.6894 128.87 14.9494L129.72 15.4794L130.19 14.5994C130.19 14.5994 129.56 13.9694 129.17 13.8794L129.16 13.8594Z"
      fill="#92117E"
    ></path>
    <path
      d="M114.569 13.4199C114.569 13.4199 114.169 14.3599 113.939 14.1799L113.119 13.6399C113.119 13.6399 112.989 13.4799 112.739 14.0099C112.739 14.0099 112.259 14.4699 112.689 14.6899C112.689 14.6899 113.339 15.1599 113.449 15.2899C113.449 15.2899 113.829 14.9899 113.979 14.5399C113.979 14.5399 113.909 14.2499 114.269 14.4999L115.119 15.0299L115.589 14.1499C115.589 14.1499 114.969 13.5199 114.569 13.4299V13.4199Z"
      fill="#92117E"
    ></path>
    <path
      d="M115.87 6.8793C115.87 6.8793 116.55 7.3193 116.65 7.4393C116.65 7.4393 117.02 7.1193 117.14 6.6593C117.14 6.6593 117.06 6.3693 117.43 6.6093L118.3 7.0993L118.72 6.1993C118.72 6.1993 118.07 5.5993 117.67 5.5293C117.67 5.5293 117.32 6.4993 117.08 6.3193L116.23 5.8293C116.23 5.8293 116.1 5.6793 115.87 6.2093C115.87 6.2093 115.42 6.6993 115.85 6.8893L115.87 6.8793Z"
      fill="#92117E"
    ></path>
    <path
      d="M131.24 14.8802L131.02 15.2402C131.02 15.2402 130.9 15.6302 131.35 15.3302C131.35 15.3302 133.01 14.4202 133.81 14.1502C133.81 14.1502 133.9 13.9502 133.87 13.6602C133.87 13.6602 132.4 14.2402 131.25 14.8702L131.24 14.8802Z"
      fill="#92117E"
    ></path>
    <path
      d="M116.92 14.7491L116.7 15.1091C116.7 15.1091 116.58 15.4991 117.03 15.1991C117.03 15.1991 118.69 14.2991 119.49 14.0191C119.49 14.0191 119.58 13.8291 119.54 13.5391C119.54 13.5391 118.07 14.1191 116.92 14.7491Z"
      fill="#92117E"
    ></path>
    <path
      d="M121.78 1.65934C121.78 1.65934 122.07 1.45934 122.55 1.47934L123.16 1.52934L121.73 2.68934C121.73 2.68934 122.69 2.30934 123.17 2.23934C123.17 2.23934 125.1 0.529337 123.94 0.449337L122.46 0.419337C122.46 0.419337 122.1 0.359337 121.89 0.749337C121.89 0.749337 121.1 1.88934 121.78 1.65934Z"
      fill="#92117E"
    ></path>
    <path
      d="M104.66 1.54896C104.66 1.54896 104.92 1.34896 105.36 1.36896L105.92 1.41896L104.62 2.57896C104.62 2.57896 105.49 2.19896 105.93 2.12896C105.93 2.12896 107.68 0.418957 106.63 0.338957L105.28 0.298957C105.28 0.298957 104.96 0.248957 104.76 0.638957C104.76 0.638957 104.05 1.77896 104.66 1.54896Z"
      fill="#92117E"
    ></path>
    <path
      d="M123.36 4.45922C122.9 4.45922 121.97 7.74922 121.97 7.74922C121.64 8.81922 122.24 9.79922 122.24 9.79922C122.99 10.7792 123.66 8.57922 123.66 8.57922C123.81 7.80922 123.32 8.29922 123.32 8.29922C123.08 9.10922 122.69 8.88922 122.69 8.88922C121.68 8.31922 123.07 5.44922 123.07 5.44922C123.41 4.73922 123.34 4.44922 123.34 4.44922L123.36 4.45922Z"
      fill="#92117E"
    ></path>
    <path
      d="M123.719 11.3302C123.719 11.3302 123.609 10.7502 123.069 11.1802C123.069 11.1802 122.529 11.6802 123.019 11.7002C123.019 11.7002 123.529 11.5202 123.159 12.1102L122.279 13.2902L122.659 13.0302C122.659 13.0302 123.869 11.8702 123.729 11.3302H123.719Z"
      fill="#92117E"
    ></path>
    <path
      d="M116.75 1.7186C116.75 1.7186 117.14 1.9386 117.43 1.8986C117.43 1.8986 117.76 2.2786 117.81 3.2086C117.81 3.2086 118.35 2.7486 118.26 1.2586C118.26 1.2586 118.47 0.388603 118.91 1.6386C118.91 1.6386 119.22 0.858603 118.73 0.478603C118.73 0.478603 118.11 0.038603 118.07 1.3586C118.07 1.3586 118.05 2.0986 117.96 2.3986C117.96 2.3986 117.54 0.728603 116.74 0.938603C116.74 0.938603 116.39 1.5286 116.76 1.7186H116.75Z"
      fill="#92117E"
    ></path>
    <path
      d="M110.239 12.8302C110.239 12.8302 109.569 12.3902 109.519 13.7102C109.519 13.7102 109.499 14.4502 109.399 14.7402C109.399 14.7402 108.939 13.0702 108.079 13.2802C108.079 13.2802 107.709 13.8702 108.089 14.0602C108.089 14.0602 108.519 14.2702 108.829 14.2402C108.829 14.2402 109.179 14.6202 109.239 15.5602C109.239 15.5602 109.829 15.0902 109.729 13.6102C109.729 13.6102 109.959 12.7402 110.429 13.9902C110.429 13.9902 110.759 13.2102 110.229 12.8302H110.239Z"
      fill="#92117E"
    ></path>
    <path
      d="M117.689 11.3199C117.689 11.3199 118.809 10.9699 118.449 9.07985C118.449 9.07985 118.079 8.33985 117.929 8.72985C117.929 8.72985 117.659 9.44985 117.949 9.76985C117.949 9.76985 118.339 10.2099 117.479 10.2999C117.479 10.2999 116.539 10.4499 116.369 9.63985C116.369 9.63985 116.509 8.62985 115.879 9.25985C115.879 9.25985 114.759 11.2799 113.259 10.4699C113.259 10.4699 111.849 9.75985 110.629 8.19985L106.449 4.24985C106.449 4.24985 106.249 3.89985 106.639 3.76985C106.639 3.76985 111.899 1.11985 114.099 1.22985C114.099 1.22985 114.969 1.23985 114.249 2.12985C114.249 2.12985 113.119 3.79985 113.329 4.33985C113.329 4.33985 113.429 4.39985 113.729 3.71985C113.729 3.71985 114.379 2.24985 114.789 1.79985C114.789 1.79985 115.849 -0.0701457 113.849 0.229854C113.849 0.229854 110.509 0.679854 106.619 2.82985C106.619 2.82985 106.269 2.99985 106.089 3.80985L105.949 4.70985C105.949 4.70985 105.949 5.09985 106.419 5.56985C106.419 5.56985 109.719 9.10985 109.829 10.0199C109.829 10.0199 109.729 11.0899 108.519 10.6899C108.519 10.6899 108.009 10.5399 107.889 9.76985C107.889 9.76985 107.879 8.89985 107.499 9.38985C107.499 9.38985 106.489 10.3499 106.009 10.5499C106.009 10.5499 105.819 10.4899 105.679 10.2299C105.679 10.2299 104.869 8.69985 104.019 9.48985C104.019 9.48985 102.469 11.0099 103.809 11.9099C103.809 11.9099 104.809 12.3099 105.519 11.9399C105.519 11.9399 105.819 12.0399 105.469 12.4999C105.469 12.4999 103.889 14.4299 102.219 14.7599C102.219 14.7599 99.3494 15.2299 99.9394 12.1899L100.339 11.0199C100.339 11.0199 100.449 10.4399 100.139 10.8899C100.139 10.8899 98.6494 13.4999 100.029 15.3199C100.029 15.3199 101.219 16.5199 102.779 15.6199C102.779 15.6199 106.229 13.9999 106.089 11.7099C106.089 11.7099 107.139 10.9499 107.549 10.4599C107.549 10.4599 107.739 11.7399 108.639 11.8199C108.639 11.8199 110.889 11.7399 109.969 9.24985L109.569 8.41985L111.639 10.5099C111.639 10.5099 112.709 12.1599 114.239 11.6799C114.239 11.6799 115.359 11.3699 115.699 10.4299C115.699 10.4299 115.919 9.96985 116.019 10.4899C116.019 10.4899 116.409 11.9699 117.689 11.3299V11.3199ZM103.829 10.8399C104.479 10.1299 105.019 10.9399 105.019 10.9399C104.179 11.0699 103.829 10.8399 103.829 10.8399Z"
      fill="#92117E"
    ></path>
    <path
      d="M114.119 5.57854C112.869 7.69854 113.399 8.20854 113.399 8.20854C113.659 8.77854 114.039 8.09854 114.039 8.09854C114.469 7.37854 114.059 7.64854 114.059 7.64854C113.969 7.97854 113.739 7.87854 113.739 7.87854C113.249 7.43854 114.309 5.56854 114.309 5.56854C114.459 5.23854 114.119 5.56854 114.119 5.56854V5.57854Z"
      fill="#92117E"
    ></path>
    <path
      d="M102.33 2.76881C102.73 2.13881 102.35 2.36881 102.35 2.36881C102.22 2.67881 102.1 2.45881 102.1 2.45881C101.66 2.06881 102.57 0.548811 102.57 0.548811C102.71 0.258811 102.4 0.548811 102.4 0.548811C101.27 2.41881 101.75 2.85881 101.75 2.85881C101.99 3.36881 102.33 2.75881 102.33 2.75881V2.76881Z"
      fill="#92117E"
    ></path>
    <path
      d="M110.929 5.86984L108.559 5.17984C108.009 5.02984 108.209 5.24984 108.209 5.24984C108.399 5.20984 108.699 5.65984 108.699 5.65984L110.709 6.22984C111.359 6.43984 111.409 5.75984 111.409 5.75984C111.979 4.97984 110.329 4.84984 110.329 4.84984C109.589 4.60984 109.909 4.37984 109.909 4.37984C110.349 4.01984 110.749 4.32984 110.749 4.32984C110.979 4.57984 111.099 4.25984 111.099 4.25984C111.379 3.89984 110.859 3.83984 110.859 3.83984C109.479 3.86984 109.429 4.63984 109.429 4.63984C109.379 5.31984 110.989 5.44984 110.989 5.44984C111.419 5.85984 110.939 5.86984 110.939 5.86984H110.929Z"
      fill="#92117E"
    ></path>
    <path
      d="M91.7702 6.15989L89.6602 5.03989C89.1602 4.78989 89.3102 5.03989 89.3102 5.03989C89.5002 5.03989 89.7002 5.52989 89.7002 5.52989L91.5002 6.46989C92.0802 6.79989 92.2602 6.16989 92.2602 6.16989C92.9602 5.52989 91.4102 5.08989 91.4102 5.08989C90.7402 4.70989 91.0902 4.54989 91.0902 4.54989C91.5902 4.28989 91.9002 4.66989 91.9002 4.66989C92.0702 4.95989 92.2502 4.66989 92.2502 4.66989C92.5902 4.37989 92.1102 4.22989 92.1102 4.22989C90.7802 3.97989 90.5902 4.70989 90.5902 4.70989C90.4102 5.34989 91.9202 5.78989 91.9202 5.78989C92.2502 6.25989 91.7802 6.16989 91.7802 6.16989L91.7702 6.15989Z"
      fill="#92117E"
    ></path>
    <path
      d="M105.209 7.10935C104.709 7.82935 104.929 8.01935 104.929 8.01935C105.149 8.11935 105.649 8.49935 105.649 8.49935C105.909 8.72935 106.149 8.26935 106.149 8.26935C106.569 7.67935 106.249 7.46935 106.249 7.46935L105.419 6.96935C105.249 6.88935 105.209 7.09935 105.209 7.09935V7.10935Z"
      fill="#92117E"
    ></path>
    <path
      d="M103.299 4.9696L103.859 5.3696C103.859 5.3696 104.149 5.4496 103.789 5.8396C103.789 5.8396 101.989 7.5096 101.689 7.6896C101.689 7.6896 102.089 7.5996 102.479 7.2596C102.479 7.2596 103.799 6.5196 104.209 5.6996C104.209 5.6996 104.469 5.7596 104.539 5.9296C104.539 5.9296 104.819 5.9696 104.829 5.4896C104.829 5.4896 104.719 5.2596 104.479 5.0896C104.479 5.0896 104.369 4.9896 104.489 4.6596C104.489 4.6596 104.479 3.0096 103.909 3.4496C103.909 3.4496 102.599 4.4896 103.299 4.9596V4.9696ZM103.839 4.0796C104.099 3.9696 104.109 4.8296 104.109 4.8296L103.589 4.4696C103.369 4.2596 103.839 4.0796 103.839 4.0796Z"
      fill="#92117E"
    ></path>
    <path
      d="M98.9495 11.1294C98.9495 11.1294 100.509 10.4894 100.489 9.43939C100.489 9.43939 100.749 7.40939 99.8995 2.71939C99.8995 2.71939 99.7395 2.33939 100.029 2.64939L100.469 3.15939C100.469 3.15939 100.749 3.32939 100.319 2.25939C100.319 2.25939 99.5695 0.039393 99.3795 0.369393C99.3795 0.369393 99.0295 1.23939 99.0995 1.48939C99.0995 1.48939 99.2095 1.54939 99.2195 2.06939L100.049 8.88939C100.049 8.88939 100.469 9.58939 98.2695 10.2394C98.2695 10.2394 97.9995 8.38939 96.4395 8.89939C96.4395 8.89939 95.6695 9.14939 95.5895 10.2994C95.5895 10.2994 95.3795 11.4194 96.3895 11.5294C96.3895 11.5294 97.4295 11.6394 97.9195 11.4794C97.9195 11.4794 98.1395 11.8594 97.7395 12.2094C97.7395 12.2094 95.7795 14.2694 93.9995 14.4794C93.9995 14.4794 92.4795 14.9294 92.2295 13.0994C92.2295 13.0994 92.1595 11.6794 92.7495 10.9394C92.7495 10.9394 93.0295 9.91939 92.6595 10.5094C92.6595 10.5094 91.0895 12.9694 92.2295 14.9594C92.2295 14.9594 93.1595 16.4794 95.2495 15.2394C95.2495 15.2394 97.9295 13.6194 98.1795 12.5294C98.1795 12.5294 98.4495 11.6594 98.3995 11.4094C98.3995 11.4094 98.4895 11.2994 98.9695 11.1394L98.9495 11.1294ZM96.2095 10.3394C96.7695 9.55939 97.3895 10.4094 97.3895 10.4094C96.9395 10.5494 96.2095 10.3394 96.2095 10.3394Z"
      fill="#92117E"
    ></path>
    <path
      d="M91.7094 10.2303C91.7094 10.2303 93.2694 9.16031 94.0394 8.81031C94.0394 8.81031 94.1194 8.60031 94.0394 8.32031C94.0394 8.32031 92.6294 9.05031 91.5594 9.79031L91.3794 10.1703C91.3794 10.1703 91.2994 10.5703 91.7094 10.2303Z"
      fill="#92117E"
    ></path>
    <path
      d="M91.7489 14.8394L91.1589 14.4194C90.8289 14.1694 90.7689 14.3794 90.7689 14.3794L90.4989 14.8894C90.3089 15.2994 90.1389 14.9994 90.1389 14.9994L89.5689 14.6194C89.3089 14.3694 89.2289 14.5994 89.2289 14.5994L88.9189 15.2294C88.7289 15.4894 88.9689 15.5994 88.9689 15.5994C89.1889 15.6794 89.5189 15.9694 89.5189 15.9694C89.7389 16.1994 89.8589 16.0194 89.8589 16.0194C90.1089 15.7994 90.2389 15.3694 90.2389 15.3694C90.3589 15.0694 91.0389 15.7194 91.0389 15.7194C91.3689 15.9494 91.4089 15.7994 91.4089 15.7994L91.7189 15.2994C91.9489 14.9294 91.7489 14.8294 91.7489 14.8294V14.8394Z"
      fill="#92117E"
    ></path>
    <path
      d="M97.8687 5.57998C97.8687 5.57998 97.9587 5.57998 98.0487 5.78998C98.0487 5.78998 98.2587 5.72998 98.3387 5.54998C98.4687 5.28998 98.1787 5.05998 98.1787 5.05998C98.4087 4.61998 98.2187 3.84998 98.2187 3.84998C98.1287 2.77998 97.1487 4.10998 97.1487 4.10998C96.5187 4.74998 97.5887 5.30998 97.5887 5.30998C97.5887 5.30998 97.8487 5.32998 97.5587 5.58998C97.5587 5.58998 95.4387 7.28998 95.1387 7.54998C95.1387 7.54998 96.9987 6.66998 97.8787 5.57998H97.8687ZM97.4587 4.40998C97.4587 4.40998 97.2587 4.19998 97.6687 4.03998C97.6687 4.03998 97.9387 3.90998 97.8987 4.73998L97.4587 4.40998Z"
      fill="#92117E"
    ></path>
    <path
      d="M90.3598 11.5793C90.3598 11.5793 90.7298 11.6093 91.0098 11.9093C91.0098 11.9093 90.7198 12.4293 89.4598 12.9893C89.4598 12.9893 86.6498 14.6793 84.7998 14.3093C84.7998 14.3093 81.2798 13.5593 83.1398 9.17934C83.1398 9.17934 83.5298 8.50934 83.2498 8.46934C83.2498 8.46934 83.0198 8.44934 82.7698 9.24934C82.7698 9.24934 81.2098 13.0293 82.9798 14.6393C82.9798 14.6393 84.4998 16.2693 86.8398 15.2693C86.8398 15.2693 89.7298 14.0493 90.7598 13.1893C90.7598 13.1893 92.4098 10.6593 90.1398 10.3393C90.1398 10.3393 91.5898 9.27934 90.7498 7.44934C90.7498 7.44934 89.9498 6.36934 89.3698 6.01934C89.3698 6.01934 88.0398 4.98934 87.9198 4.60934C87.9198 4.60934 88.1598 4.55934 88.6098 4.76934C88.6098 4.76934 88.9798 4.76934 88.6098 4.48934L87.1498 3.50934C87.1498 3.50934 86.8398 3.33934 87.2898 3.13934C87.2898 3.13934 90.6598 1.62934 93.2498 1.09934C93.2498 1.09934 94.9198 0.809342 94.4698 1.67934C94.4698 1.67934 93.7598 2.82934 93.4798 3.78934C93.4798 3.78934 93.2998 4.40934 93.6898 3.78934C93.6898 3.78934 94.5698 1.79934 94.8898 1.33934C94.8898 1.33934 95.3698 0.359342 94.5698 0.0993425C94.5698 0.0993425 93.9998 -0.0606576 93.0798 0.149342C93.0798 0.149342 90.5998 0.559343 87.0998 2.22934C87.0998 2.22934 86.0698 3.53934 86.7098 4.40934C86.7098 4.40934 87.3498 5.12934 87.6398 5.50934C87.6398 5.50934 88.7798 6.68934 89.2198 6.97934C89.2198 6.97934 90.9498 8.25934 90.5998 8.90934C90.5998 8.90934 90.0698 9.58934 88.3398 10.2293C88.3398 10.2293 88.1698 10.2293 88.0898 10.9393C88.0898 10.9393 88.0698 11.2893 88.7098 11.3393L90.3398 11.5793H90.3598Z"
      fill="#92117E"
    ></path>
    <path
      d="M85.4505 1.29991C85.6605 1.39991 86.1705 1.77991 86.1705 1.77991C86.4305 2.00991 86.6805 1.54991 86.6805 1.54991C87.1005 0.959908 86.7705 0.749908 86.7705 0.749908L85.9405 0.259908C85.7705 0.169908 85.7306 0.389908 85.7306 0.389908C85.2306 1.11991 85.4505 1.29991 85.4505 1.29991Z"
      fill="#92117E"
    ></path>
    <path
      d="M85.0792 7.77955C85.0792 7.77955 85.3392 7.59955 85.7792 7.61955L86.3392 7.66955L85.0392 8.75955C85.0392 8.75955 85.9092 8.40955 86.3492 8.33955C86.3492 8.33955 88.0992 6.71955 87.0492 6.64955L85.7092 6.61955C85.7092 6.61955 85.3792 6.56955 85.1892 6.92955C85.1892 6.92955 84.4792 8.00955 85.0892 7.77955H85.0792Z"
      fill="#92117E"
    ></path>
    <path
      d="M86.2895 11.4894C86.2895 11.4894 86.3695 10.2994 85.7295 10.6994C85.7295 10.6994 85.1795 11.2094 85.3395 11.4994C85.3395 11.4994 85.3795 11.6094 85.5295 11.4594C85.5295 11.4594 86.0195 11.1494 85.7895 11.7094C85.7895 11.7094 85.3595 12.7794 84.7695 13.3394C84.7695 13.3394 85.9595 12.5194 86.2795 11.4794L86.2895 11.4894Z"
      fill="#92117E"
    ></path>
    <path
      d="M82.4693 5.6493C82.4693 5.6493 82.1393 6.5193 81.7993 6.3293C81.7993 6.3293 81.2093 5.6293 81.5793 4.1393C81.5793 4.1393 82.4593 2.0593 82.5593 1.6193L83.5693 1.1893C83.5693 1.1893 84.0593 0.749297 83.7193 0.279297C83.7193 0.279297 76.2893 3.8993 75.5493 4.5093C75.5493 4.5093 75.3093 4.7493 75.3293 5.2193C75.3293 5.2193 75.4393 5.3693 75.6493 5.1293C75.6493 5.1293 79.3393 2.9093 82.1893 1.8093C82.1893 1.8093 82.2293 1.9793 81.9193 2.4593C81.9193 2.4593 80.7793 4.5493 81.0493 6.2393C81.0493 6.2393 81.1693 7.9593 81.9793 7.3593C81.9793 7.3593 82.6493 6.8693 82.6793 5.6893C82.6793 5.6893 82.5493 5.4093 82.4793 5.6293L82.4693 5.6493Z"
      fill="#92117E"
    ></path>
    <path
      d="M78.0295 7.30915C78.0295 7.30915 78.0095 7.54915 78.3495 7.19915C78.3495 7.19915 79.5195 5.74915 78.9395 5.32915C78.9395 5.32915 78.6295 4.94915 78.2795 5.59915C78.2795 5.59915 78.0095 5.94915 78.3295 5.91915C78.3295 5.91915 78.7795 5.58915 78.6995 6.10915C78.6995 6.10915 78.4495 6.86915 78.0295 7.30915Z"
      fill="#92117E"
    ></path>
    <path
      d="M76.1787 1.59935C76.1787 1.59935 76.6287 1.76935 76.9387 1.68935C76.9387 1.68935 77.3387 2.02935 77.5087 2.97935C77.5087 2.97935 78.0387 2.43935 77.7687 0.949353C77.7687 0.949353 77.8887 0.0293533 78.5187 1.23935C78.5187 1.23935 78.7587 0.409353 78.1787 0.0893532C78.1787 0.0893532 77.4587 -0.280647 77.5687 1.06935C77.5687 1.06935 77.6287 1.81935 77.5687 2.12935C77.5687 2.12935 76.9287 0.489353 76.0787 0.799353C76.0787 0.799353 75.7787 1.43935 76.1787 1.58935V1.59935Z"
      fill="#92117E"
    ></path>
    <path
      d="M75.9499 8.69003C75.5099 9.45003 75.8799 9.90003 75.8799 9.90003C76.4199 10.32 76.6899 9.47003 76.6899 9.47003C76.8099 8.95003 76.5799 9.21003 76.5799 9.21003C76.4999 9.50003 76.1999 9.44003 76.1999 9.44003C75.7599 9.02003 76.6299 7.58003 76.6299 7.58003C76.4099 7.50003 75.9499 8.69003 75.9499 8.69003Z"
      fill="#92117E"
    ></path>
    <path
      d="M73.97 14.6702C73.9 14.9502 73.63 14.8902 73.63 14.8902C73.24 14.4702 74.01 13.0302 74.01 13.0302C73.82 12.9402 73.41 14.1402 73.41 14.1402C73.02 14.9002 73.36 15.3502 73.36 15.3502C73.84 15.7702 74.08 14.9202 74.08 14.9202C74.18 14.4002 73.98 14.6702 73.98 14.6702H73.97Z"
      fill="#92117E"
    ></path>
    <path
      d="M80.5398 8.97911C79.6798 8.00911 78.7898 9.80911 78.7898 9.80911C78.5098 9.77911 78.4298 10.0191 78.4298 10.0191C78.3298 10.4091 78.0398 10.9691 78.0398 10.9691C76.6498 12.5891 75.2298 11.3491 75.2298 11.3491C74.3598 10.6991 74.3698 5.16911 74.3698 5.16911C74.2698 3.27911 73.8498 0.709113 73.8498 0.709113C73.8198 0.169113 73.6298 0.419113 73.6298 0.419113L73.2598 1.28911C73.3498 1.40911 73.4798 2.44911 73.4798 2.44911C73.9198 3.94911 73.8998 8.24911 74.2098 10.6491C74.5098 13.0491 76.4698 12.9291 76.4698 12.9291C77.8198 12.9591 78.4798 11.0391 78.4798 11.0391C78.9398 11.5491 80.2298 11.8891 80.2298 11.8891C80.5998 11.9891 80.9798 11.7891 80.9798 11.7891L81.2898 10.9291C81.2898 10.9291 81.2898 10.8791 81.2798 10.8591C81.1798 10.2391 80.5298 8.99911 80.5298 8.99911L80.5398 8.97911ZM79.0598 10.1691C79.3098 9.70911 79.7798 9.82911 79.7798 9.82911C80.2598 10.0691 80.2698 10.6591 80.2698 10.6591L79.0598 10.1691Z"
      fill="#92117E"
    ></path>
    <path
      d="M79.6999 13.2393C79.6999 13.2393 79.6099 13.1093 79.5299 13.2893C79.5299 13.2893 79.3499 14.0493 78.4099 14.4493C78.4099 14.4493 76.7899 15.2293 76.1699 15.4193C76.1699 15.4193 77.1399 15.2493 77.4199 15.3093C77.4199 15.3093 78.7599 14.6993 79.1299 14.4593C79.1299 14.4593 79.4699 14.0393 79.4999 13.8293C79.4999 13.8293 79.6899 13.7393 80.1499 14.0993C80.1499 14.0993 80.4299 14.2593 80.5799 13.9393C80.5799 13.9393 80.7399 13.5693 80.3599 12.8193C80.3599 12.8193 80.0299 12.5093 79.7099 13.2393H79.6999ZM80.1599 13.5493L79.8499 13.3893C80.2299 13.0593 80.1599 13.5493 80.1599 13.5493Z"
      fill="#92117E"
    ></path>
    <path
      d="M73.0996 9.23877L72.2696 7.78877L72.6096 7.75877C72.6096 7.75877 72.6496 7.56877 72.2496 7.26877C72.2496 7.26877 71.5896 6.13877 71.4896 6.61877C71.4896 6.61877 71.2496 7.63877 71.4896 7.79877C71.4896 7.79877 71.5996 7.88877 71.7396 8.26877C71.7396 8.26877 73.0396 10.0488 72.5096 10.5788C72.5096 10.5788 71.7996 11.4088 71.1996 11.7188C71.1996 11.7188 66.2896 14.8088 64.3496 15.4488C64.3496 15.4488 66.4496 14.8888 67.2196 14.9188C67.2196 14.9188 68.1696 14.8088 68.5696 14.4988L72.1296 12.1488C72.1296 12.1488 73.6496 10.7988 73.0796 9.22877L73.0996 9.23877Z"
      fill="#92117E"
    ></path>
    <path
      d="M72.7406 4.13016C72.7406 4.13016 72.9306 4.06016 72.9906 3.78016C72.9906 3.78016 73.1706 3.22016 72.7906 3.57016L69.2706 5.45016C69.2706 5.45016 69.0906 5.82016 69.1206 6.01016L72.7406 4.13016Z"
      fill="#92117E"
    ></path>
    <path
      d="M70.9595 2.42028C71.0595 2.03028 70.8895 2.10028 70.8095 2.36028C70.7295 2.62028 70.5495 2.46028 70.5495 2.46028C70.0195 1.80028 70.9595 0.510278 70.9595 0.510278C71.0995 0.0502781 70.7195 0.470278 70.7195 0.470278C69.6995 2.12028 70.3195 3.08028 70.3195 3.08028C70.8895 3.30028 70.9595 2.42028 70.9595 2.42028Z"
      fill="#92117E"
    ></path>
    <path
      d="M67.7396 9.40947C67.7396 9.40947 68.2496 12.0495 67.9596 12.7395C67.9596 12.7395 68.7496 11.4795 68.3196 8.66947L67.6196 2.59947C67.6196 2.59947 68.0396 2.99947 68.1496 3.25947C68.1496 3.25947 68.2696 2.93947 67.9796 2.42947C67.9796 2.42947 67.2396 -0.0505308 67.0396 0.299469C67.0396 0.299469 66.5196 1.16947 66.7996 1.37947L67.7396 9.41947V9.40947Z"
      fill="#92117E"
    ></path>
  </svg>